<?xml version="1.0" encoding="UTF-8"?>
<svg width="1837px" height="1809px" viewBox="0 0 1837 1809" version="1.1" xmlns="http://www.w3.org/2000/svg" xmlns:xlink="http://www.w3.org/1999/xlink">
    <title>Artboard</title>
    <g id="Artboard" stroke="none" stroke-width="1" fill="none" fill-rule="evenodd">
        <rect fill="#CEF6B5" x="0" y="0" width="1836.19681" height="1809"></rect>
        <g id="Group-4-Copy-2" transform="translate(288.000000, 478.000000)" stroke="#4D3370" stroke-width="5">
            <g id="Group">
                <path d="M26.7803241,314.342 C11.9700034,338.512663 4.37974694,353.148344 4.00955461,358.249043 C-1.3365182,431.909967 -1.3365182,483.960021 4.00955461,514.486193 C6.17791489,526.867569 12.5189606,542.880896 17.2779363,561.329172 C21.3536074,577.128601 28.019352,604.470599 44.226718,613.305779 C54.9873348,619.171753 63.4823919,625.961761 69.7118892,633.675803 L87.6690139,658.725 C90.6663643,682.181072 97.0853748,702.059795 106.926045,718.361169 C121.687051,742.813229 135.270775,739.281294 152.088062,741.047262 C157.735322,741.640275 166.43026,750.437172 179.571486,756.365859 C189.772677,760.968144 198.149574,768.585543 210.184067,770.824157 C228.813601,774.289558 251.259435,769.47805 264.476175,756.365859 C278.413163,742.539117 282.64426,715.255468 284.127137,680.224745 C284.687394,666.989526 284.687394,644.683204 284.127137,613.305779 C286.851293,610.676248 288.574889,607.743261 289.297926,604.506818 C290.020963,601.270374 290.020963,596.488232 289.297926,590.160392 C296.853362,588.483629 303.294876,587.032157 308.622466,585.805976 C313.950057,584.579794 319.561922,582.921635 325.458059,580.831496 C351.430318,601.587223 368.427103,616.772013 376.448416,626.385867 C387.915498,640.129609 397.691613,659.776209 397.691613,666.40278 C397.691613,679.691787 415.217614,678.924923 418.865177,690.480616 C427.733284,718.575298 450.157273,769.223996 482.022419,808.503235 C487.645924,815.435166 490.65796,825.002822 491.058528,837.206204 C506.228807,860.891175 528.345207,872.733661 557.407728,872.733661 C574.504608,872.733661 593.122012,872.733661 612.848257,863.179683 C617.858641,860.753013 628.658568,866.147682 633.610767,863.179683 C638.49233,860.254018 642.651109,851.596192 646.087104,837.206204 C677.432121,839.899724 701.025562,843.67247 716.867427,848.524441 C732.709292,853.376411 756.429883,864.094781 788.029199,880.67955 C810.739524,885.856137 826.502868,888.784935 835.319231,889.465942 C857.493156,891.178735 872.359037,887.149419 885.339497,889.465942 C906.061512,893.164041 916.715475,897.925315 917.301385,903.749764 C957.13226,901.646579 987.762621,886.595012 1009.19247,858.595061 C1030.62232,830.595111 1037.68596,802.83857 1030.38338,775.325438 C1058.01271,744.147912 1074.73705,719.921729 1080.5564,702.646889 C1086.37574,685.37205 1086.37574,659.951709 1080.5564,626.385867 C1111.11523,596.335518 1130.53112,568.260475 1138.80406,542.160736 C1147.07701,516.060998 1144.52204,479.310741 1131.13916,431.909967 C1137.78749,417.946793 1144.47893,408.695974 1151.21348,404.157511 C1187.47773,379.718771 1214.23447,385.501932 1230.32027,358.249043 C1239.60784,342.513857 1254.46093,313.504106 1256.99144,287.183772 C1259.04019,265.874271 1254.14917,228.764958 1242.31837,175.855835 L1187.82617,132.047461 C1153.20293,119.395757 1123.48238,107.705676 1098.66453,96.9772182 C1073.84667,86.2487608 1036.62846,69.0020258 987.009882,45.2370132 C934.539776,53.5731971 894.904517,62.7092734 868.104105,72.6452424 C841.303693,82.5812114 802.887321,102.381951 752.854988,132.047461 L694.582535,113.964208 L612.848257,15.4129947 C561.15161,2.39644574 520.555033,-2.37557239 491.058528,1.09694034 C416.097607,9.92180769 329.524877,48.3396246 284.127137,72.6452424 C233.871702,99.551635 166.620972,151.77495 100.125469,225.743535 C80.7741632,247.269632 56.3257818,276.802454 26.7803241,314.342 Z" id="Path-87" fill="#E4F461"></path>
                <path d="M606.862,453.621662 C620.524258,443.375144 632.087698,438.251885 641.55232,438.251885 C655.749254,438.251885 676.650986,455.48716 681.345788,455.48716 C686.040591,455.48716 683.622186,440.125292 688.050549,442.50472 C692.478912,444.884148 717.074361,450.117243 728.346126,451.874882 C750.503697,455.329976 765.227202,454.806439 778.85527,459.322269 C795.667035,464.893058 814.431615,468.986377 835.507022,486.082511 C838.640237,488.62414 843.505741,495.136536 850.103536,505.619701 C836.700863,506.082059 827.337363,506.082059 822.013033,505.619701 C816.688703,505.157343 810.504708,503.807218 803.461048,501.569327 C805.540157,493.450453 803.835473,488.288181 798.346995,486.082511 C788.153488,481.986017 782.74198,474.270467 778.85527,472.037024 C773.093141,468.725899 764.164037,468.725899 752.067958,472.037024 C743.840535,470.809462 737.826535,469.403675 734.02596,467.819662 C730.225384,466.23565 726.0704,463.403186 721.561009,459.322269 L711.281576,467.819662 C682.126555,465.530521 661.608506,464.079305 649.72743,463.466012 C637.846354,462.85272 630.250538,462.85272 626.939983,463.466012 C619.597117,460.793514 614.171469,458.597164 610.66304,456.876961 C607.154611,455.156758 605.887598,454.071658 606.862,453.621662 Z" id="Path-88" fill="#CEF6B5"></path>
                <path d="M987.009882,45.2370132 C1009.95504,64.1420546 1025.10419,78.1628724 1032.45735,87.2994666 C1057.34073,118.218065 1067.99004,145.294848 1083.73583,162.115765 C1106.46105,186.392675 1120.75283,197.144197 1126.61116,194.370332 C1133.84322,198.157985 1138.96402,201.769924 1141.97356,205.206151 C1144.98309,208.642377 1146.66725,212.8002 1147.02603,217.679619 L1164.37696,217.679619 C1163.425,212.125043 1163.425,207.96722 1164.37696,205.206151 C1165.32891,202.445081 1168.00776,198.833142 1172.4135,194.370332" id="Path-89"></path>
                <path d="M926.503868,57.7482547 C927.043877,85.8806134 929.590992,107.337294 934.145211,122.118296 C938.699431,136.899299 947.589499,152.562704 960.815416,169.108512 C972.011046,201.786993 980.742535,222.626223 987.009882,231.626202 C993.27723,240.626181 999.05763,240.626181 1004.35108,231.626202 L1012.27512,275.189261" id="Path-90"></path>
                <path d="M850.103536,505.966469 C858.477852,520.524136 862.66501,531.106347 862.66501,537.713104 C862.66501,572.108605 885.825904,595.840353 914.324458,610.058465 C928.335394,617.048611 942.954414,621.336375 957.422004,626.615437 C966.459844,629.913244 972.810994,635.708315 987.009882,636.291426 C1002.09307,636.910853 1032.99367,633.685523 1079.71169,626.615437" id="Path-91"></path>
                <path d="M957.422004,626.615437 C952.664226,617.060874 948.825906,610.181949 945.907042,605.978661 C942.868954,601.603685 933.524449,601.392032 931.010843,596.867884 C922.184796,580.982206 923.687759,559.584795 926.503868,538.381713 C927.728258,529.163024 934.806668,521.158343 938.056362,510.768439 C940.127314,504.147201 933.802798,496.087678 938.056362,486.082511 C941.06471,479.006322 952.481025,479.741013 961.238558,465.117195 C964.367486,459.892336 959.559468,451.344487 964.907613,438.251885 C967.436683,432.060561 974.804106,420.59062 987.009882,403.842062" id="Path-92"></path>
                <path d="M854.193499,461.516327 C865.706,429.982735 877.268814,408.331461 888.881942,396.562506 C907.603379,377.589861 934.809046,359.812688 964.907613,354.360337 C1000.96862,347.827892 1018.62939,354.360337 1054.66556,358.165724 C1068.52303,359.629061 1089.23282,369.663038 1103.26399,384.378978 C1110.9231,392.411869 1120.21482,408.255532 1131.13916,431.909967" id="Path-93"></path>
                <path d="M810.175963,444.171493 C791.520405,427.418278 786.856515,410.383303 796.184294,393.06657 C801.368637,383.441998 818.932419,381.321712 825.96592,366.136445 C829.713468,358.045521 832.107083,340.704963 833.146764,314.114773" id="Path-94"></path>
                <path d="M754.862963,131.458316 C750.564511,157.871898 745.970882,177.381893 741.082077,189.988303 C736.193272,202.594712 728.800741,213.992568 718.904482,224.181869 L718.904482,285.691739 L718.904482,336.100637 C724.537296,349.663203 730.530376,364.010702 736.883722,379.143133 C746.413742,401.841779 737.857667,417.939933 754.862963,431.055713 C766.199828,439.799566 784.019029,452.149411 808.320568,468.105246" id="Path-95"></path>
                <path d="M521.454896,3.61310981e-13 C524.880998,12.8882118 526.886331,22.2681718 527.470895,28.13988 C528.014203,33.5971887 528.528669,38.9322598 529.089144,44.1631426 C530.137176,53.9443605 525.611736,65.8286454 527.470895,74.9992815 C529.566562,85.3365332 538.222791,92.8934893 542.671816,102.773895 C545.20477,108.399084 559.116882,111.079606 562.628902,117.64938 C567.823343,127.366382 575.177588,148.328047 590.743273,166.468758 C597.281695,174.088829 599.736045,186.446729 608.086881,203.45457 C609.66283,206.664247 617.081853,208.390924 620.336319,213.893633 C622.666509,217.833559 627.517445,227.0501 634.889127,241.543257 C629.713979,257.786516 627.064264,269.00185 626.939983,275.189261 C626.647637,289.743826 627.621345,295.88391 626.939983,303.969921 C626.349831,310.973495 619.047957,324.714685 620.336319,328.292481 C628.722531,351.581082 623.998815,364.321243 626.939983,379.143133 C630.837726,398.785643 649.510078,402.225303 654.935947,416.675106 C658.553193,426.308307 668.115273,439.245659 683.622186,455.48716" id="Path-96"></path>
                <path d="M667.037602,838.78977 C658.78731,820.479901 653.277275,807.612492 650.507499,800.187543 C647.737722,792.762595 645.11818,783.837021 642.648872,773.410823 C638.206101,767.379363 635.984716,761.295256 635.984716,755.158502 C635.984716,749.021748 638.206101,742.967801 642.648872,736.996661 L628.722531,717.391973 C636.189406,704.757265 638.610135,690.303545 635.984716,674.030814 C631.992304,649.285261 633.267476,617.986514 635.984716,604.365463 C640.325639,582.605168 641.635825,562.137164 650.507499,545.092427 C652.005146,542.215067 653.069936,537.735303 655.136352,536.772893 C673.111684,528.401085 669.75852,521.939233 676.285106,515.22875 C683.471394,507.839977 693.725533,495.960662 707.03375,490.957873 C714.967367,487.975489 729.313113,486.350369 750.070989,486.082511" id="Path-97"></path>
                <path d="M937.539903,620.162743 C927.093193,622.168043 918.843054,623.535345 912.789487,624.264651 C906.735919,624.993957 897.132636,625.777552 883.979636,626.615437 C868.181201,624.208365 857.133021,622.747421 850.835097,622.232607 C830.796005,620.594543 817.962168,622.055486 812.333584,626.615437 C809.095151,629.239027 811.773146,635.46585 812.333584,646.45232 C812.628684,652.237269 810.207739,662.444695 812.333584,676.479562 C813.137408,681.786423 821.545327,688.896073 824.231792,699.886465 C825.509594,705.113986 825.684539,714.748151 824.756625,728.788962 C812.744546,741.505917 804.257131,751.145822 799.294381,757.708677 C787.67462,773.074916 785.211865,792.871293 779.616456,803.293379 C770.436383,820.392309 766.531677,830.856698 767.902336,834.686545 C777.579951,846.498277 788.043966,855.757175 799.294381,862.463241 C810.544796,869.169306 830.342959,877.948865 858.688868,888.801917" id="Path-98"></path>
                <path d="M1030.48763,820.556502 C1020.23995,817.609631 1013.12624,815.2096 1009.1465,813.356407 C998.750385,808.515386 991.816843,802.548351 987.009882,800.155515 C982.317372,797.819651 979.255482,801.649082 971.177716,804.602209 C967.878701,805.808287 961.187201,807.43626 951.103215,809.486128 C945.718006,822.670736 938.104869,830.354337 928.263804,832.536931 C921.324183,834.076031 908.3744,834.076031 893.522373,838.78977 C890.650812,839.701147 883.003334,835.886201 870.579939,827.344933" id="Path-99"></path>
                <path d="M625.677734,463.079742 C608.238572,467.88001 596.351501,473.458363 590.016522,479.814801 C582.634489,487.221841 578.380654,494.72088 571.996069,502.165691 C566.928669,508.074584 557.163632,509.427289 552.557426,515.22875 C549.522697,519.050954 550.133038,523.693221 547.415086,527.540645 C527.328093,555.974979 511.884743,583.436975 500.198627,598.657318 C492.729012,608.385966 489.861722,616.941346 483.067926,626.615437 C480.770484,629.886902 476.585507,640.331177 475.803776,651.984619 C475.154607,661.661933 477.991078,672.978588 475.803776,674.357062 C449.974039,690.635383 437.05917,710.465904 437.05917,733.848624" id="Path-100"></path>
                <path d="M274.876699,738.547869 C270.202338,729.191583 264.055394,724.893363 256.435865,725.653207 C248.816336,726.413051 234.356884,732.76621 213.057509,744.712682 L185.001034,738.547869" id="Path-101"></path>
                <path d="M98.4125801,287.496245 C108.45345,297.90855 113.473885,307.160361 113.473885,315.251677 C113.473885,323.342993 118.494319,329.149166 128.535189,332.670196 L128.535189,359.924071 L154.050141,388.314916 C161.870118,401.227629 167.694721,409.516852 171.52395,413.182586 C180.720976,421.986931 190.183251,422.73527 193.413641,427.826267 C198.661515,436.096756 201.435557,447.976671 201.735768,463.466012 C209.339214,471.008229 215.035558,478.429353 218.824799,485.729386 C222.614041,493.029419 226.31873,503.719532 229.938867,517.799725 C234.924079,527.276771 239.70036,534.571291 244.267709,539.683284 C248.835058,544.795277 254.208914,548.861271 260.389277,551.881264" id="Path-102"></path>
                <path d="M284.127137,613.305779 C265.882225,607.417878 251.174166,607.417878 240.002962,613.305779 C233.270443,616.854224 219.544362,618.291183 205.224259,622.04356 C198.930187,623.69283 188.906645,626.948874 175.153634,631.811692 C174.335043,637.797406 173.062799,642.852803 171.336904,646.977884 C169.611008,651.102965 166.612256,656.255717 162.340648,662.43614 C148.880895,659.558919 138.232625,662.074794 130.39584,669.983764 C124.479148,675.954955 114.99815,695.615121 114.99815,714.148537 C114.99815,717.552386 112.307449,718.956597 106.926045,718.361169" id="Path-103"></path>
                <path d="M172.583863,586.863568 C201.960258,579.598156 223.098393,577.23911 235.998266,579.786429 C244.149756,581.396092 256.554641,579.540813 267.216218,586.863568 C271.356587,589.707322 277.64716,597.049417 286.087936,608.889854" id="Path-104"></path>
                <path d="M391.651485,648.874343 C390.318731,628.638186 392.14242,611.899178 397.122551,598.657318 C402.102683,585.415458 409.202125,571.226789 418.420877,556.091309 C423.827643,546.334475 428.172333,538.917859 431.454949,533.84146 C434.737564,528.765062 440.048922,521.249086 447.389024,511.293532 C453.487586,509.931881 457.488822,508.156193 459.392731,505.966469 C472.810897,490.53397 481.097424,474.485717 490.59123,468.105246 C502.105657,460.366783 512.393546,458.170477 521.454896,461.516327 C531.621707,458.473468 538.077714,456.463745 540.822916,455.48716 C555.903115,450.122491 561.932283,447.271429 571.766098,444.171493 C584.285138,440.225088 596.392066,443.996977 608.086881,455.48716" id="Path-105"></path>
                <path d="M229.3359,144.460885 C237.208875,166.034301 241.983933,180.022396 243.661073,186.425171 C244.954776,191.364104 243.098438,196.69767 243.661073,199.985653 C245.171887,208.814695 247.665829,211.672387 251.044714,218.873401 C258.258936,234.24821 263.498992,250.576599 273.127268,264.281733 C283.050475,278.406678 297.350563,289.895291 303.844617,304.94124 C308.567083,315.882629 323.133642,319.52259 327.318076,329.588003 C330.643761,337.587746 332.141563,349.130739 338.198395,359.101442 C341.833535,365.085578 350.820472,368.941037 352.436764,375.501581 C355.097893,386.303127 355.097893,404.35956 352.436764,429.670878" id="Path-106"></path>
                <path d="M325.458059,580.831496 C313.834072,561.805771 308.968097,545.931939 310.860132,533.209999 C312.752167,520.48806 323.007951,500.121119 341.627483,472.109177" id="Path-107"></path>
                <path d="M366.97791,34.4318857 C361.078488,47.5791171 361.078488,64.5638211 366.97791,85.3859976 C370.479814,97.7460671 382.904496,109.926835 391.229435,127.340401 C395.029119,135.288331 399.688555,149.296586 405.207743,169.365164 C408.887421,179.874209 412.214952,187.547379 415.190335,192.384672 C419.65341,199.640613 415.251538,196.164517 428.105046,216.845519 C432.453938,223.842786 449.498878,230.873176 457.006982,241.192694 C461.864166,247.868654 466.931904,259.989465 472.210194,277.555129" id="Path-108"></path>
            </g>
        </g>
    </g>
</svg>