<?xml version="1.0" encoding="UTF-8"?>
<svg width="1837px" height="1809px" viewBox="0 0 1837 1809" version="1.1" xmlns="http://www.w3.org/2000/svg" xmlns:xlink="http://www.w3.org/1999/xlink">
    <title>Artboard Copy 5</title>
    <g id="Artboard-Copy-5" stroke="none" stroke-width="1" fill="none" fill-rule="evenodd">
        <rect fill="#CEF6B5" x="0" y="0" width="1836.19681" height="1809"></rect>
        <g id="Group-Copy-4" transform="translate(272.000000, 626.000000)" stroke="#4D3370" stroke-width="5.59082892">
            <g id="Group-6">
                <g id="Group-5">
                    <path d="M502.841393,391.599365 C498.111791,390.593648 494.889566,390.090789 493.174717,390.090789 C491.459868,390.090789 489.185777,389.196546 486.352442,387.40806 C483.533272,385.538222 481.768293,382.367591 481.057506,377.896169 C480.34672,373.424747 482.111698,366.714075 486.352442,357.764152 C484.866546,349.395558 484.123599,342.769882 484.123599,337.887124 C484.123599,333.004366 484.866546,325.786723 486.352442,316.234196 C483.474885,306.577987 481.709907,298.604071 481.057506,292.31245 C480.405106,286.020829 480.405106,276.973632 481.057506,265.170859 C491.512879,255.498882 498.774175,247.648509 502.841393,241.61974 C506.908611,235.590971 509.15758,227.43769 509.588299,217.159897 C519.069355,212.757715 525.735442,208.584569 529.58656,204.640462 C533.437678,200.696355 535.914178,195.506155 537.01606,189.069864 C543.345205,188.096718 548.042988,186.275448 551.109409,183.606056 C554.175829,180.936663 557.638242,175.654286 561.496648,167.758923 C576.786858,166.028509 587.3869,164.679308 593.296775,163.711322 C603.133445,162.100161 610.771822,158.561928 616.42134,159.204505 C627.162207,160.426174 638.234405,166.619382 649.637933,177.784131 C657.241612,179.143321 662.849147,179.969194 666.460538,180.261749 C674.971038,180.951175 683.138957,180.185218 689.526018,183.606056 C699.978557,189.204319 712.432005,201.054809 726.886363,219.157525 C734.239136,222.012975 739.464853,228.211769 742.563513,237.753907 C745.662174,247.296046 751.970863,260.572574 761.489581,277.583492 C763.276783,291.14521 764.348026,301.851832 764.703309,309.703357 C765.058592,317.554882 764.969771,328.559144 764.436846,342.716141 C763.438206,346.329314 762.455784,349.456422 761.489581,352.097466 C760.523378,354.73851 759.057651,358.303235 757.0924,362.791641 C753.226001,372.933441 747.225062,381.138914 739.089583,387.40806 C733.322536,391.852107 724.357796,398.814226 720.486973,415.556462 C719.826694,418.412327 715.821289,415.456616 710.441089,418.53966 C708.927055,419.407254 706.563897,422.70394 703.351615,428.429718 C706.503055,432.017476 706.503055,434.895492 703.351615,437.063768 C698.624454,440.316181 695.217091,437.624563 687.576905,439.28314 C682.483448,440.388858 675.932162,443.792833 667.923046,449.495064 L656.944186,446.346748 C646.476825,447.520484 638.501283,448.569922 633.017559,449.495064 C622.715661,451.233063 612.490555,456.74268 600.376388,452.438936 C578.589623,444.698854 546.077958,424.418997 502.841393,391.599365 Z" id="Path-118" fill="#E4F461"></path>
                    <path d="M580.392604,304.450592 C596.640802,304.681095 608.906336,308.846937 617.189209,316.948118 C625.472081,325.049298 635.371573,342.562276 646.887686,369.48705 C649.37088,371.651344 654.229939,373.114944 661.464863,373.877849 C668.699788,374.640755 680.86669,374.972503 697.965571,374.873092 C698.916018,369.848887 700.132,363.45266 701.613515,355.68441 C703.09503,347.91616 707.248014,335.004062 714.072465,316.948118 C697.365949,309.724996 685.702136,303.9918 679.081029,299.748529 C665.516568,291.055469 655.70468,278.793676 646.887686,275.603404 C631.615042,270.077271 614.092201,269.41531 594.319161,273.617523 C581.905635,278.892476 574.88295,283.336383 573.251108,286.949243 C571.619266,290.562104 573.999764,296.395887 580.392604,304.450592 Z" id="Path-112" fill="#4D3370"></path>
                    <path d="M688.208264,279.876871 C681.463656,272.703868 676.897696,266.767996 674.510385,262.069256 C672.123074,257.370516 670.693075,251.505054 670.220387,244.472871 C662.287784,238.907858 656.496502,234.486964 652.846542,231.210189 C644.323651,223.55871 636.401435,213.954763 630.806338,210.2507 C617.022418,201.125477 606.684321,203.198344 599.79328,197.848761 C589.918205,190.182642 589.497187,181.154305 588.275871,179.417875 C586.202294,176.469728 593.39661,177.511605 609.858819,182.543506 C617.30933,189.473035 622.779191,194.11463 626.268402,196.468288 C641.799701,206.944979 654.411139,212.441106 663.233356,217.921017 C680.926113,228.910856 676.074474,223.901237 683.828182,235.776685 C691.58189,247.652133 693.20323,253.183102 693.20323,263.82237 C693.20323,270.915215 691.538242,276.266716 688.208264,279.876871 Z" id="Path-113" fill="#4D3370"></path>
                    <path d="M596.31329,219.157525 C581.93656,236.254881 572.681124,249.227 568.546984,258.073884 C564.412843,266.920769 561.54456,279.892888 559.942134,296.990243 L528.063702,296.990243 C526.218775,293.423811 526.218775,290.520646 528.063702,288.280751 C532.314745,283.119628 545.271839,276.503607 546.546254,271.967919 C548.161111,266.220584 542.04457,257.251906 541.18062,244.32099 C541.006142,241.709539 542.794686,237.339272 546.546254,231.210189 C556.098811,233.398557 564.147871,233.398557 570.693432,231.210189 C577.238993,229.02182 585.778945,225.004266 596.31329,219.157525 Z" id="Path-114" fill="#4D3370"></path>
                    <path d="M486.352442,308.562711 C492.453578,304.45873 496.981759,302.406739 499.936983,302.406739 C502.892207,302.406739 506.792118,304.45873 511.636716,308.562711 C524.812186,315.447597 534.303698,319.606769 540.111251,321.040227 C545.918804,322.473684 553.277886,322.473684 562.188496,321.040227 C574.300778,321.384113 583.054981,321.975905 588.451106,322.815602 C593.847231,323.655299 599.432554,327.869384 605.207077,335.457857 L626.268402,370.044184 C610.395204,370.953753 600.410166,374.105265 596.31329,379.498721 C592.216413,384.892177 590.350228,393.656119 590.714736,405.790546 C581.125,401.153106 573.89157,396.824246 569.014444,392.803966 C564.137319,388.783686 561.862003,385.274358 562.188496,382.275983 C556.688869,375.218957 551.974455,370.351636 548.045253,367.674019 C544.116051,364.996402 537.455534,362.112096 528.063702,359.021101 C527.422462,360.283449 524.338538,360.283449 518.81193,359.021101 C513.285322,357.758752 505.949304,354.490041 496.803876,349.214968 C495.570071,341.074968 494.449979,333.985563 493.443599,327.946753 C492.43722,321.907943 490.073501,315.446596 486.352442,308.562711 Z" id="Path-115" fill="#4D3370"></path>
                    <path d="M611.557619,396.94336 C609.03552,410.637127 607.292902,422.42332 606.329764,432.30194 C605.366626,442.180561 607.109244,449.874184 611.557619,455.382809 C624.184571,451.326625 633.85389,448.806776 640.565574,447.823264 C647.277259,446.839752 654.803891,446.839752 663.145471,447.823264 C663.221984,441.274063 662.732508,436.800473 661.677042,434.402494 C659.323845,429.056116 653.461886,425.987091 652.380425,422.610465 C650.571371,416.962091 650.571371,414.162525 652.380425,414.211766 C653.055917,407.5788 656.154789,403.446732 661.677042,401.81556 C667.199295,400.184389 677.708025,399.554022 693.20323,399.924458 C687.154862,393.447744 682.085759,390.209386 677.995922,390.209386 C660.752682,390.209386 645.925825,386.155192 636.333686,384.91749 C623.242455,383.228289 614.983766,387.236912 611.557619,396.94336 Z" id="Path-116" fill="#4D3370"></path>
                    <path d="M500.666689,362.791641 C508.507266,382.389304 518.576215,393.582259 530.873536,396.370508 C537.344247,397.837653 554.288417,400.382556 564.986311,404.25689 C571.408321,406.582676 579.96847,411.089207 590.666758,417.776483 C588.840865,424.488439 587.927918,429.660109 587.927918,433.291494 C587.927918,436.922879 588.840865,442.307219 590.666758,449.444516 C579.755482,449.769803 571.890069,448.525112 567.070519,445.710443 C550.653887,436.122953 540.131312,422.966708 529.093779,417.776483 C513.195694,410.30066 503.719997,400.177852 500.666689,387.40806 C497.839352,383.642023 496.425683,379.938779 496.425683,376.298326 C496.425683,372.657874 497.839352,368.155646 500.666689,362.791641 Z" id="Path-117" fill="#4D3370"></path>
                    <line x1="590.666758" y1="449.495064" x2="611.557619" y2="455.382809" id="Path-119"></line>
                    <path d="M133.606666,228.830501 C111.090412,220.544734 89.7434937,220.544734 69.5659116,228.830501 C49.3883296,237.116269 29.2990408,254.131725 9.29804522,279.876871 C0.487272924,311.245757 -2.06172284,342.916894 1.65105792,374.890283 C5.36383869,406.863672 15.0778357,436.895443 30.7930489,464.985597 C52.3807782,480.362333 72.3179321,488.050701 90.6045107,488.050701 C108.891089,488.050701 134.359105,493.756618 167.008559,505.168452 C196.782453,495.464679 215.706997,487.756292 223.782191,482.04329 C231.857386,476.330288 236.389788,467.443461 237.379399,455.382809 L252.016005,464.985597 L276.991909,455.382809 C283.7439,432.373077 290.858648,415.842322 298.336155,405.790546 C301.472472,401.574494 301.471277,394.943774 304.997922,384.541899 C308.252234,374.943273 314.618513,354.393482 324.096759,322.892526 C292.930096,289.337342 268.903179,265.087608 252.016005,250.143323 C240.948267,240.34894 214.031443,232.612651 195.92721,219.157525 C189.581054,214.441041 183.19942,205.564121 176.782307,192.526766 L157.101934,192.526766 L133.606666,228.830501 Z" id="Path-120" fill="#E4F461"></path>
                    <path d="M264.358288,107.984144 C254.733401,141.625247 250.945601,164.891909 252.994887,177.784131 C255.044173,190.676352 263.894885,199.260877 279.547025,203.537703 C275.766364,219.821441 275.766364,231.008786 279.547025,237.099739 C283.327686,243.190691 293.197264,247.90404 309.15576,251.239786 C344.86145,264.343108 371.641171,270.89477 389.494925,270.89477 C407.348678,270.89477 418.735304,264.343108 423.654803,251.239786 C433.691217,245.982535 440.447507,241.269186 443.923674,237.099739 C447.399841,232.930291 449.559462,226.949553 450.402538,219.157525 C461.761798,210.686812 471.817021,201.809893 480.568206,192.526766 C489.319392,183.24364 498.127597,172.110517 506.992824,159.127398 C518.777833,153.65992 525.340227,148.364125 526.680007,143.240013 C528.019787,138.115901 524.777925,130.712011 516.954423,121.028343 L496.425683,97.5984563 C500.511636,79.6276812 497.153889,64.1819016 486.352442,51.2611174 C475.550995,38.3403333 463.567694,26.2914781 450.402538,15.1145521 C441.923706,5.03818404 419.951264,9.53405491e-14 384.485214,9.53405491e-14 C349.019164,9.53405491e-14 328.889679,5.03818404 324.096759,15.1145521 C304.778946,21.0314485 292.890631,26.6199115 288.431815,31.8799412 C283.972999,37.1399708 283.972999,45.5760575 288.431815,57.1882014 C267.777027,65.3461269 255.964717,72.5583098 252.994887,78.8247503 C250.025057,85.0911908 253.812857,94.8109888 264.358288,107.984144 Z" id="Path-121" fill="#E4F461"></path>
                    <path d="M764.703309,348.847609 C767.143476,346.887894 769.212525,348.638238 770.910456,354.098642 C772.608387,359.559047 772.608387,369.706799 770.910456,384.541899 C771.482625,393.97373 773.113329,401.174214 775.802568,406.143352 C778.491806,411.11249 784.881517,415.718824 794.971699,419.962354 C807.60538,417.971469 820.135106,417.971469 832.560878,419.962354 C844.986651,421.95324 862.046596,426.694163 883.740713,434.185126 C895.292832,427.490049 905.504967,422.749125 914.377118,419.962354 C923.249269,417.175583 936.107903,414.669905 952.953019,412.445318 C965.741665,398.805078 974.653232,389.503938 979.687718,384.541899 C984.722205,379.57986 988.511757,376.362655 991.056374,374.890283 C997.51669,357.855587 1002.78639,344.711445 1006.86548,335.457857 C1010.94457,326.204268 1015.04255,318.097407 1019.15943,311.137273 C1007.915,298.729006 1000.90262,290.24708 998.122303,285.691495 C990.206224,272.720897 991.192788,265.186092 987.781999,258.073884 C982.574284,247.21471 979.87619,237.466915 979.687718,228.830501 L952.953019,185.221589 C934.354839,189.239226 918.920639,191.674285 906.650418,192.526766 C900.144126,192.978795 885.953101,185.250787 875.321643,185.221589 C869.042697,185.20667 859.87957,187.641729 847.832263,192.526766 C849.663062,195.879516 844.5726,201.243923 832.560878,208.619986 C825.620222,212.88205 818.863642,213.557711 807.310287,219.157525 C801.682788,221.885127 791.180215,227.752017 775.802568,236.758194 L764.703309,279.876871 L764.703309,348.847609 Z" id="Path-122" fill="#E4F461"></path>
                    <path d="M513.855658,155.530086 C516.104823,169.916102 518.93843,179.171735 522.35648,183.296984 C525.774529,187.422234 529.867157,189.47068 534.634361,189.442324" id="Path-123"></path>
                    <path d="M520.829648,124.580007 C530.198226,85.1986663 547.506126,56.8373575 572.753348,39.4960806 C579.15297,35.1004443 588.305978,34.4446975 596.31329,31.0616546 C604.829678,27.4635295 609.428197,14.7146719 626.268402,11.1121137 C635.766759,9.08016788 655.686601,9.08016788 686.027928,11.1121137 C714.626036,14.2201941 736.056364,18.3693986 750.318911,23.5597272 C764.581459,28.7500557 776.766695,36.8339972 786.87462,47.8115514 C803.824884,76.9457161 814.216078,98.3547458 818.0482,112.038641 C821.880323,125.722536 821.880323,141.418788 818.0482,159.127398 C818.255449,165.70616 818.255449,170.294511 818.0482,172.892452 C817.364759,181.459631 815.875784,187.286057 815.862474,192.339154 C815.84311,199.690728 806.180492,211.854511 786.87462,228.830501 C783.523609,227.396457 779.832924,230.039022 775.802568,236.758194 C771.772211,243.477367 767.001215,257.085799 761.489581,277.583492 C744.297413,238.923707 733.275211,218.393719 728.422974,215.99353 C710.537307,207.146274 700.87958,186.236469 687.019529,180.975494 C676.388795,176.940299 663.575367,182.171014 652.217773,177.784131 C644.149673,174.667818 638.308855,165.378168 630.711456,162.407867 C627.421902,161.121774 620.266852,157.030521 608.765411,159.127398 C603.687652,160.053146 596.827398,167.025517 590.666758,167.758923 C584.614926,168.479376 574.891556,168.479376 561.496648,167.758923 C554.880988,177.39607 549.927596,183.216959 546.636475,185.221589 C539.245582,189.723399 531.463615,186.814762 526.680007,185.221589 C522.98463,183.99085 518.709847,174.093682 513.855658,155.530086 C522.161431,150.583602 526.534159,145.666652 526.973844,140.779236 C527.258451,137.615624 525.210386,132.215881 520.829648,124.580007 Z" id="Path-124" fill="#E4F461"></path>
                    <path d="M1065.0157,384.541899 C1052.05943,389.91276 1043.44346,394.890039 1039.1678,399.473735 C1034.89215,404.057432 1032.49475,410.886971 1031.97562,419.962354 C1024.91858,425.334296 1020.64652,430.075219 1019.15943,434.185126 C1017.67235,438.295032 1017.67235,445.360926 1019.15943,455.382809 L1008.03292,481.258035 C997.374152,486.576375 992.044767,492.380295 992.044767,498.669795 C992.044767,504.959296 997.374152,510.974897 1008.03292,516.716598 L1019.15943,540.482603 C1015.43522,555.83148 1015.43522,566.953057 1019.15943,573.847335 C1022.13587,579.357313 1034.69028,583.975609 1039.1678,589.182736 C1052.04898,604.162873 1069.77279,616.297606 1092.33924,625.586935 L1126.13795,617.267779 C1136.61827,622.813883 1144.05001,625.586935 1148.43316,625.586935 C1152.81631,625.586935 1157.67307,622.813883 1163.00344,617.267779 L1205.47722,633.515375 C1215.39447,613.654371 1222.78453,601.31096 1227.6474,596.485142 C1232.51027,591.659324 1237.55839,591.659324 1242.79177,596.485142 C1255.74319,576.826606 1266.09,563.095042 1273.8322,555.290451 C1281.57441,547.485861 1286.57481,542.549911 1288.8334,540.482603 C1291.03412,516.533286 1291.03412,498.782199 1288.8334,487.229343 C1286.63267,475.676487 1281.63227,467.177636 1273.8322,461.732789 C1278.45606,458.192518 1280.83107,455.094567 1280.95723,452.438936 C1281.40589,442.994936 1274.93545,431.790883 1273.8322,426.192056 C1272.26361,418.231663 1268.17422,409.325557 1261.56405,399.473735 C1246.04719,394.158982 1234.74164,389.181703 1227.6474,384.541899 C1220.55315,379.902096 1213.16309,372.652009 1205.47722,362.791641 C1194.59992,363.684222 1186.67958,363.684222 1181.7162,362.791641 C1168.60917,360.43456 1157.0007,354.098642 1148.43316,354.098642 C1134.99906,354.098642 1123.34609,356.996309 1113.47423,362.791641 C1099.62473,359.680419 1089.23415,359.680419 1082.3025,362.791641 C1075.37084,365.902863 1069.60858,373.152949 1065.0157,384.541899 Z" id="Path-125" fill="#E4F461"></path>
                    <path d="M1123.61024,482.411461 C1130.44231,485.346333 1128.38198,496.456828 1134.00635,509.886517 C1135.10788,512.516691 1139.47089,515.938741 1147.09541,520.152666 C1141.88844,536.723048 1138.47962,549.764332 1136.86895,559.276517 C1135.25829,568.788701 1135.25829,575.879069 1136.86895,580.547618 C1129.58406,570.565477 1124.17968,564.101618 1120.65583,561.156042 C1116.59182,557.758948 1109.10316,559.656689 1106.89463,556.672681 C1099.27309,546.375029 1105.57118,527.841647 1100.18338,523.702159 C1096.6956,521.022469 1093.79819,531.304077 1089.03518,535.750165 C1086.44047,538.172234 1081.74629,535.676081 1079.66267,535.750165 C1064.46466,536.290535 1052.71881,528.460023 1047.46266,523.702159 C1036.51336,513.79084 1069.25182,520.564378 1070.76517,515.768978 C1072.68957,509.671073 1057.23632,500.174439 1058.41197,497.445227 C1062.64423,487.620211 1067.47701,483.821378 1068.58486,482.411461 C1071.48359,478.722389 1075.71075,488.024878 1077.18801,491.721833 C1078.17285,494.186469 1078.17285,498.259671 1077.18801,503.941439 C1088.97724,495.916816 1095.85168,491.843614 1097.81134,491.721833 C1112.53162,490.807052 1117.61962,479.838056 1123.61024,482.411461 Z" id="Path-126" fill="#4D3370"></path>
                    <path d="M600.376388,135.447385 C604.462683,129.946726 608.046935,125.844206 611.129144,123.139825 C615.348857,119.437379 619.929812,113.328005 626.268402,111.58208 C629.584145,110.66878 636.42932,107.779627 640.565574,108.041506 C644.274302,108.276318 645.188472,111.625598 649.637933,111.58208 C653.871034,111.540679 662.6093,108.032683 670.87597,108.041506 C674.450711,108.045322 679.831897,109.225513 687.019529,111.58208" id="Path-128"></path>
                </g>
                <path d="M1225.90879,481.56228 C1215.20699,480.521352 1207.79527,480.521352 1203.67361,481.56228 C1196.96979,483.255339 1190.47518,491.131825 1188.25532,490.892285 C1183.98826,490.431835 1183.98826,485.967463 1188.25532,477.499172 C1182.62416,473.411549 1178.4757,471.222615 1175.80993,470.932371 C1164.57964,469.709636 1155.84893,473.370908 1151.23557,470.932371 C1144.97958,467.625568 1141.65584,461.534974 1141.26435,452.66059 C1148.5049,456.293796 1153.80331,457.95181 1157.15958,457.634633 C1160.51585,457.317456 1165.16887,454.719003 1171.11864,449.839276 C1155.48988,446.935686 1145.53845,443.427536 1141.26435,439.314824 C1136.99025,435.202112 1135.81583,428.004517 1137.74107,417.722038 C1150.99697,430.307898 1162.12283,434.69263 1171.11864,430.876235 C1184.61235,425.151641 1182.21043,447.746359 1188.25532,449.839276 C1200.20869,453.977874 1214.29164,453.977874 1230.50417,449.839276 C1228.0823,452.867281 1226.55051,456.596252 1225.90879,461.026189 C1225.26708,465.456126 1225.26708,472.30149 1225.90879,481.56228 Z" id="Path-127" fill="#4D3370"></path>
                <path d="M820.922292,228.830501 C824.920271,239.262859 827.084378,246.292936 827.414613,249.920734 C828.397225,260.715223 824.592145,266.039057 827.414613,270.89477 C831.659939,278.198333 836.589746,281.192367 842.204035,279.876871 C854.086482,275.937959 861.473083,272.943925 864.363836,270.89477 C873.549756,264.383187 882.083803,258.092187 891.931372,254.353686 C902.557801,250.319502 926.02436,249.920734 952.468325,249.920734 C958.629918,249.920734 963.16555,245.292455 966.075224,236.035898" id="Path-129"></path>
                <path d="M800.720999,304.311231 C797.48775,308.422517 802.861665,313.23797 812.391717,322.892526 C815.206773,325.744358 819.940369,331.255392 826.592505,339.425626 C831.331521,331.354672 834.884596,325.843639 837.251729,322.892526 C849.139959,308.071427 855.390034,300.606524 851.90097,296.990243 C845.104236,289.945693 807.719756,295.411854 800.720999,304.311231 Z" id="Path-130" fill="#4D3370"></path>
                <path d="M133.305251,270.89477 C129.119546,261.403601 132.007367,254.939092 141.968716,251.501242 C151.930064,248.063391 160.557312,240.506478 167.850459,228.830501 C183.17591,238.914193 195.095892,246.471107 203.610403,251.501242 C212.124914,256.531376 218.662437,259.87864 223.222972,261.543031" id="Path-131"></path>
            </g>
        </g>
    </g>
</svg>