<?xml version="1.0" encoding="UTF-8"?>
<svg width="1888px" height="1860px" viewBox="0 0 1888 1860" version="1.1" xmlns="http://www.w3.org/2000/svg" xmlns:xlink="http://www.w3.org/1999/xlink">
    <title>Artboard Copy 6</title>
    <g id="Artboard-Copy-6" stroke="none" stroke-width="1" fill="none" fill-rule="evenodd">
        <rect fill="#CEF6B5" x="0" y="0" width="1887.96355" height="1860"></rect>
        <g id="Group-3-Copy" transform="translate(381.000000, 526.000000)" stroke="#4D3370" stroke-width="7.73567468">
            <g id="Group" transform="translate(0.000000, 0.773567)">
                <path d="M40.3381104,312.895933 L26.2781536,320.832954 C15.3202797,344.196639 8.64675322,363.033655 6.25757418,377.343999 C-5.41320334,447.247865 0.684491115,511.388632 12.717398,543.227468 C38.8840075,612.463805 91.5820196,665.547333 187.374704,716.70014 C232.334604,740.708498 268.132819,760.668934 312.179555,775.162818 C361.979894,791.549965 420.310346,805.964544 487.094,814.860397 C645.060976,835.902238 762.484442,842.087332 888.836247,822.076047 C949.950744,812.396885 995.893359,785.300996 1039.21111,757.811397 C1080.86612,731.376984 1109.99539,674.760798 1126.59894,587.962839 C1116.90894,497.263389 1103.20097,429.053208 1085.47503,383.332295 C1067.74909,337.611382 1028.71099,269.772483 968.360748,179.815599 L958.156067,179.815599 L908.966701,125.669462 C893.675676,109.161756 881.019879,97.1042606 870.99931,89.496976 C860.978741,81.8896914 852.050685,77.5614388 844.215141,76.5122183 C808.130943,51.7444199 780.887377,36.4184605 762.484442,30.5343402 C744.081507,24.65022 723.392228,24.65022 700.416604,30.5343402 L687.71737,38.0178173 C675.043794,22.4878747 656.283621,11.9603035 631.436851,6.43510383 C606.590081,0.909904123 569.161231,-1.05733064 519.150301,0.533399549 C507.341402,7.07881547 496.655969,14.2322317 487.094,21.9936483 C477.532032,29.755065 468.51466,32.6019623 460.041883,30.5343402 C456.082592,21.1919092 451.252721,15.634309 445.552271,13.8615397 C437.851747,11.4667727 425.182384,11.0609552 412.970852,13.8615397 C389.331619,19.2829455 367.014728,24.8405456 346.020179,30.5343402 L339.480243,45.1386559 L322.512124,51.0347287 C312.120213,59.3632167 310.368447,67.8557132 317.256826,76.5122183 C324.145206,85.1687234 325.896972,96.2079093 322.512124,109.629776 L292.568649,76.5122183 L274.679696,83.4706076 C267.612494,69.3311518 255.962407,65.3488705 239.729433,71.5237635 C223.496459,77.6986565 198.168153,95.7472225 163.744513,125.669462 L163.744513,152.43825 C165.522697,160.45065 167.565603,166.034621 169.873232,169.190163 C176.841442,178.718767 187.184991,184.591366 187.374704,185.61845 C187.800632,187.924376 159.49222,168.8286 169.873232,185.61845 C176.793907,196.811683 180.254244,209.38538 180.254244,223.33954 C160.782792,210.445968 145.660105,201.73003 134.886183,197.191725 C124.112261,192.653421 109.385027,188.795662 90.7044815,185.61845 C80.1969938,206.149201 69.0722967,226.094876 57.3303901,245.455475 C54.7689669,249.678868 50.7626509,258.807688 45.3114421,272.841937 L40.3381104,312.895933 Z" id="Path-14" fill="#E4F461"></path>
                <path d="M634.784603,809.757038 L619.678225,563.969493 C653.521894,613.479737 670.443728,643.321596 670.443728,653.495069 C670.443728,663.668542 658.557353,715.755865 634.784603,809.757038 Z" id="Path-38"></path>
                <path d="M783.291969,591.539278 L819.147075,665.124743 L783.291969,798.020643 C819.955452,717.00011 838.287193,672.701477 838.287193,665.124743 C838.287193,657.548009 819.955452,633.019521 783.291969,591.539278 Z" id="Path-39"></path>
                <path d="M472.81389,617.478908 C473.606103,635.110268 473.606103,648.993319 472.81389,659.128059 C472.021677,669.2628 470.007518,681.146767 466.771414,694.77996 L486.275038,778.111616 C450.601508,722.557179 432.764743,689.629593 432.764743,679.328858 C432.764743,669.028123 446.114459,648.411473 472.81389,617.478908 Z" id="Path-40"></path>
                <path d="M322.306582,639.744724 C318.403118,651.795391 315.669601,659.918273 314.10603,664.113372 C308.924211,678.016314 305.905478,685.531562 305.905478,694.77996 C305.905478,700.791128 311.916923,713.848542 314.10603,721.860423 C315.908244,728.456319 318.641761,737.860381 322.306582,750.072609" id="Path-41"></path>
                <path d="M197.074582,329.009829 L108.187355,320.644327 C91.5104129,342.552228 80.2314619,358.527044 74.3505014,368.568774 C66.6129643,381.780606 55.0309546,393.612592 55.0309546,405.888487 C55.0309546,418.643181 65.9976156,438.906303 74.3505014,455.307441 C80.2517985,466.894812 88.5203681,482.055441 99.15621,500.789327 L134.079341,516.740493" id="Path-42"></path>
                <path d="M108.187355,320.644327 C111.916404,320.644327 122.439051,345.29769 139.755296,394.604416" id="Path-43"></path>
                <path d="M687.71737,38.0178173 C699.221509,45.5784998 705.730972,57.591569 707.245757,74.0570251 C708.760543,90.5224811 709.517936,112.366805 709.517936,139.589997" id="Path-44"></path>
                <path d="M580.829932,261.715272 L670.443728,139.589997 C672.489724,164.372592 675.239297,183.512423 678.692449,197.00949 C682.1456,210.506558 688.787335,228.073811 698.617653,249.71125 C784.927438,271.084378 829.780454,281.770942 833.176702,281.770942 C838.271074,281.770942 828.480942,241.939729 825.974435,230.449555 C822.156579,212.947981 822.895384,205.64296 820.692009,197.00949 C819.616411,192.794983 816.315602,185.631489 810.789581,175.51901 L810.789581,158.874549 L698.617653,139.589997" id="Path-45"></path>
                <path d="M1023.17333,563.969493 L1035.95977,473.814003 C1054.31609,486.177006 1066.90681,496.229446 1073.73193,503.971322 C1083.96961,515.584137 1093.35677,522.59963 1093.35677,538.920616 C1093.35677,549.801274 1086.81515,585.517737 1073.73193,646.070008" id="Path-46"></path>
                <path d="M186.647338,694.908666 C261.075319,650.882002 318.069297,622.035443 357.629272,608.368991 C445.957611,577.854942 542.26035,563.783389 618.469658,560.124604 C745.877228,554.007805 891.440837,594.595281 1055.16048,681.88703" id="Path-47"></path>
                <line x1="1035.95977" y1="473.814003" x2="1013.32846" y2="473.814003" id="Path-48"></line>
                <path d="M905.506686,534.89679 L910.650566,404.723982 C930.564765,412.349441 946.259973,419.292167 957.736191,425.552161 C969.212409,431.812154 987.743166,443.538846 1013.32846,460.732237 L1001.05758,572.934362" id="Path-49"></path>
                <path d="M467.463778,563.969493 C465.804802,537.919166 463.15684,515.337821 459.519891,496.225459 C455.882941,477.113097 449.936758,454.531752 441.681342,428.481426" id="Path-50"></path>
                <path d="M591.856805,382.272976 C597.69557,423.275801 602.536755,453.789477 606.380358,473.814003 C610.223962,493.838528 615.065146,513.768359 620.903911,533.603493" id="Path-51"></path>
                <path d="M580.829932,357.624372 L563.299471,225.454333 C563.822329,217.579395 563.822329,212.654774 563.299471,210.680469 C560.987607,201.950906 555.957945,199.36593 552.531326,191.415594 C547.942244,180.768151 542.146387,165.414437 535.143754,145.354455 C528.980359,107.65409 523.422214,84.0571478 518.469319,74.5636289 C511.039976,60.3233507 500.477301,57.0667804 493.008542,45.6164818 C488.029369,37.9829494 485.784868,31.1797279 486.275038,25.2068173" id="Path-52"></path>
                <path d="M19.1028625,516.740493 C20.7886052,482.209058 23.6724249,462.608305 27.7543215,457.938235 C31.836218,453.268164 44.8411652,447.282402 66.7691628,439.980948" id="Path-53"></path>
                <path d="M952.900769,174.760429 C961.816758,191.185566 967.798817,203.158913 970.846945,210.680469 C973.895073,218.202026 975.954934,226.072907 977.026528,234.293113" id="Path-54"></path>
                <path d="M912.072357,210.680469 C912.072357,210.680469 937.731123,227.579825 989.048655,261.378535 C1005.23519,337.362324 1013.32846,377.660471 1013.32846,382.272976 C1013.32846,386.885481 983.207242,361.770059 922.964802,306.926712 C915.703172,242.76255 912.072357,210.680469 912.072357,210.680469 Z" id="Path-55"></path>
                <line x1="922.964802" y1="306.926712" x2="778.078002" y2="376.827238" id="Path-56"></line>
                <line x1="833.176702" y1="281.770942" x2="758.60067" y2="374.683389" id="Path-57"></line>
                <path d="M606.380358,394.604416 C658.231284,379.104568 688.88406,370.063739 698.338688,367.481929 C712.520629,363.609214 731.923838,370.552945 753.006794,373.824794 C767.062098,376.006027 793.785401,379.001003 833.176702,382.809724" id="Path-58"></path>
                <line x1="670.443728" y1="653.495069" x2="819.147075" y2="665.124743" id="Path-59"></line>
                <path d="M55.0309546,366.338864 C48.6840004,354.965733 44.6523531,345.063707 42.9360126,336.632788 C41.2196722,328.201868 40.5438589,319.009952 40.9085728,309.057038" id="Path-60"></path>
                <path d="M90.7044815,185.61845 C94.3265047,205.681711 96.536464,220.988301 97.3343592,231.538222 C98.1322544,242.088142 98.1322544,256.002048 97.3343592,273.279939 C107.864718,272.331688 122.00503,274.664126 139.755296,280.277254 C157.505561,285.890382 181.077616,295.483643 210.471461,309.057038" id="Path-61"></path>
                <path d="M322.512124,109.629776 C327.728727,122.462368 331.552256,130.964546 333.982712,135.136311 C335.255032,137.32019 339.525991,138.364027 340.49937,140.074502 C348.711148,154.504695 356.177645,168.446299 362.898862,181.899314 C364.781492,185.667538 365.949079,191.90034 367.714764,195.591898 C374.413598,209.597306 380.927362,220.548042 385.942916,233.449929 C391.269259,247.151285 396.980831,263.662972 403.077631,282.98499 C407.382087,296.626702 411.785878,316.900117 419.65987,345.419725 C422.762426,356.657187 428.601539,376.381086 437.177207,404.591421" id="Path-62"></path>
            </g>
            <path d="M314.362899,440.159889 L285.004251,395.439584 L247.294965,337.999243 L227.428835,247.747124 C246.010808,229.286744 262.013548,217.082269 275.437053,211.133699 C288.860559,205.185129 310.83435,200.560464 341.358426,197.259704 L374.431064,297.095376 L428.556377,375.725576" id="Path-63"></path>
            <line x1="247.54159" y1="338.048983" x2="372.859519" y2="294.729205" id="Path-64"></line>
            <path d="M64.9796673,614.021666 C68.2227777,602.138549 73.3029663,591.985062 80.2202331,583.561203 C82.4873542,580.800299 86.7202745,573.240442 89.9923318,570.107949 C94.4665946,565.824528 102.804149,560.155458 115.004996,553.100739 C115.267844,567.176965 118.151131,581.020594 123.654858,594.631626 C129.158586,608.242658 138.995752,625.85744 153.166359,647.47597" id="Path-65"></path>
            <path d="M321.480042,607.128211 C305.851341,607.868961 296.180074,605.243423 292.466242,599.251597 C288.75241,593.25977 287.898398,578.904024 289.904208,556.184357 C278.783561,531.695791 270.844245,510.319705 266.086261,492.056101 C261.328276,473.792497 260.244996,460.535196 262.836421,452.284199 C269.675898,451.405156 286.491649,447.281104 313.283674,439.912044 C340.075699,432.542984 381.078491,420.764231 436.292052,404.575786" id="Path-66"></path>
        </g>
    </g>
</svg>