<?xml version="1.0" encoding="UTF-8"?>
<svg width="1775px" height="1748px" viewBox="0 0 1775 1748" version="1.1" xmlns="http://www.w3.org/2000/svg" xmlns:xlink="http://www.w3.org/1999/xlink">
    <title>Artboard Copy 4</title>
    <g id="Artboard-Copy-4" stroke="none" stroke-width="1" fill="none" fill-rule="evenodd">
        <rect fill="#CEF6B5" x="0" y="0" width="1774.27973" height="1748"></rect>
        <g id="Group-8-Copy" transform="translate(458.000000, 382.000000)" stroke="#4D3370" stroke-width="5">
            <g id="Group-2-Copy" transform="translate(0.949446, 0.026923)">
                <g id="Group" transform="translate(0.050554, 0.973077)">
                    <path d="M253.769376,979.994525 C268.74859,985.981674 279.150219,990.246183 284.974262,992.788051 C290.798305,995.329919 296.525969,998.104943 302.157255,1001.11312 C308.164024,999.433975 312.711713,997.871476 315.800321,996.425624 C318.888929,994.979773 321.860116,993.767248 324.713882,992.788051 C333.638654,992.788051 341.926153,992.788051 349.576379,992.788051 C352.319142,992.788051 354.318639,987.37347 357.629143,987.685179 C361.578002,988.056993 368.752447,990.970475 379.152478,996.425624 C389.105368,1001.08839 402.009716,1002.65089 417.86552,1001.11312 C432.058843,999.736589 451.720172,1002.52929 473.567857,1001.11312 C475.273888,1001.00254 477.3385,999.440038 479.761693,996.425624 C505.689299,995.678785 525.144178,994.466261 538.126332,992.788051 C551.108485,991.109841 555.606185,988.565203 551.61943,985.154135 C563.901835,984.484432 573.101976,982.764562 579.219852,979.994525 C585.337728,977.224488 591.479616,972.200964 597.645517,964.923952 C615.010562,961.503375 629.756861,957.097926 641.884413,951.707606 C654.011965,946.317286 659.360832,939.716584 657.931014,931.905502 C686.027335,930.952424 703.620577,926.794557 710.71074,919.431902 C714.835035,915.1491 715.612926,907.254628 710.71074,902.832863 C708.360563,900.713006 702.112394,898.678018 691.966235,896.7279 C700.148577,892.144662 706.396745,889.632944 710.71074,889.192747 C727.572932,887.472138 742.40247,891.220165 749.586515,889.192747 C759.527492,886.387291 766.717574,881.449522 771.156762,874.379441 L763.547184,853.586161 C775.973007,846.84312 783.486935,842.085907 786.088969,839.314521 C792.167844,832.840007 773.476024,826.675192 771.156762,823.421773 C767.348375,818.079438 754.451949,813.601556 732.467484,809.988129 C736.646942,805.306663 739.918608,801.957694 742.282482,799.94122 C743.844116,798.609088 749.572529,797.13484 751.570895,796.443747 C763.811433,792.210616 775.481638,795.807931 786.088969,792.921816 C806.839032,787.275996 820.325548,778.501053 826.54852,766.596988 C810.440402,753.944813 789.439957,747.260352 763.547184,746.543604 C745.947933,746.056432 710.742543,750.258605 657.931014,759.150123 L628.038152,746.543604 C636.509686,741.064408 643.182327,737.860974 648.056074,736.933303 C651.672058,736.245034 660.204963,741.705808 663.781803,741.099683 C695.427849,735.737004 720.408698,727.031094 745.067539,719.115295 C760.572762,714.137923 787.494231,710.548779 800.398162,704.921427 C810.149442,700.668934 817.163686,693.301551 821.440895,682.819276 C813.324556,677.01901 804.102609,672.744647 793.775054,669.996188 C783.447499,667.247729 767.211661,664.747043 745.067539,662.494132 C772.415159,650.482923 793.759917,641.309045 809.101814,634.972496 C824.44371,628.635947 833.899715,620.94522 837.469828,611.900314 C829.842706,614.050344 822.679599,614.050344 815.980506,611.900314 C809.281413,609.750283 799.317568,604.253497 786.088969,595.409957 C793.018816,593.000851 797.788547,590.483507 800.398162,587.857923 C803.007777,585.232339 805.908994,580.031795 809.101814,572.25629 C801.038565,571.13625 795.929645,569.894915 793.775054,568.532284 C785.072352,563.028423 781.515356,555.935727 771.156762,553.225832 C763.702751,551.2758 749.843765,554.588377 738.247685,553.225832 C731.245645,552.403089 720.488218,549.753664 705.975405,545.277558 L763.547184,533.640274 C773.264515,525.889323 780.778443,520.288377 786.088969,516.837437 C803.746765,505.362867 821.09986,495.921661 830.231833,488.348576 C843.483423,477.359119 851.114026,467.694627 853.123644,459.355101 C844.755477,459.871373 837.124873,459.871373 830.231833,459.355101 C821.952493,458.734998 812.407818,453.129 800.398162,453.956473 C782.608471,455.182195 756.333272,476.714728 727.477095,481.315251 C717.508817,482.904488 702.05481,479.534942 681.115073,471.206611 C696.264355,468.560146 706.129577,466.088124 710.71074,463.790547 C720.206369,459.02823 721.816759,450.530171 727.477095,448.613899 C757.487738,438.453983 783.204447,436.11747 800.398162,426.615791 C816.08056,417.949303 818.435247,411.152817 821.440895,404.146917 C822.705315,401.199668 824.407856,396.762837 826.54852,390.836427 L809.101814,382.893058 C817.817107,376.11466 824.860446,369.790205 830.231833,363.919691 C835.603219,358.049177 843.233823,348.336137 853.123644,334.78057 C850.664404,334.194007 845.446465,334.194007 837.469828,334.78057 C830.705675,335.277973 819.675554,332.989325 809.101814,334.78057 C796.895136,336.848443 797.245984,348.946632 771.156762,348.946632 C763.740417,348.946632 752.265653,353.420486 738.247685,354.577947 C728.318175,355.397824 716.782433,352.381722 705.975405,354.577947 C699.497786,355.894341 691.211009,357.341139 681.115073,358.918342 C697.859488,347.038804 708.944118,338.99288 714.368963,334.78057 C732.852037,320.428744 740.522054,312.867833 749.586515,306.20268 C770.168056,291.068948 788.331716,282.262768 800.398162,270.84755 C811.877417,259.987833 811.550314,247.766869 815.980506,239.650593 C819.085456,233.96221 822.608127,227.856671 826.54852,221.333974 C815.659786,214.473248 806.943,210.303946 800.398162,208.826069 C797.020389,208.063341 791.172646,212.51265 786.088969,212.537206 C782.911267,212.552555 777.933864,211.315509 771.156762,208.826069 C774.908471,194.262276 772.371946,185.124705 763.547184,181.413359 C758.044137,179.098994 751.812582,187.085024 738.247685,187.657096 C732.789048,187.887303 722.031621,185.806057 705.975405,181.413359 C711.571111,175.155061 720.401804,170.312876 732.467484,166.886805 C744.533165,163.460734 754.893065,149.787258 763.547184,125.86638 C756.958696,114.101872 750.798815,106.448808 745.067539,102.907188 C741.106006,100.459173 738.508211,103.430482 732.467484,102.907188 C730.668429,102.75134 726.961262,101.22397 721.345985,98.3250798 C730.826982,67.6079094 728.501308,53.600684 714.368963,56.3034037 C706.559536,57.7969063 697.8682,72.6079197 681.115073,84.6379246 C675.124639,88.939507 666.540042,84.7757444 652.958029,92.6031342 C648.34431,95.2620463 640.037684,103.117535 628.038152,116.169601 C622.096838,76.3547586 620.611509,50.1168723 623.582166,37.4559418 C626.552823,24.7950113 628.038152,12.9157283 628.038152,1.81809256 C618.681437,-0.606030852 610.448521,-0.606030852 603.339404,1.81809256 C596.230287,4.24221596 588.190436,9.79103381 579.219852,18.4645461 C562.501659,15.4604154 549.749325,15.4604154 540.96285,18.4645461 C536.253373,20.0747351 532.490031,27.1191579 527.076215,31.4753484 C523.95172,33.9894529 518.56828,37.4358438 510.925896,41.814521 C512.986781,47.2633527 515.285362,52.0929803 517.821639,56.3034037 C520.357917,60.5138272 524.970966,67.1580584 531.660786,76.2360971 C525.026589,74.6134761 520.41354,74.6134761 517.821639,76.2360971 C512.296253,79.6951831 508.254801,90.8764288 505.579826,92.6031342 C498.643589,97.0804994 493.467794,98.3959758 490.51669,102.907188 C486.675465,108.779087 489.321612,117.314878 490.51669,125.86638 C490.935298,128.861768 490.935298,133.283353 490.51669,139.131135 C478.748467,123.001369 470.505127,110.92672 465.786668,102.907188 C461.635159,95.8512465 462.453996,81.3200781 457.920756,76.2360971 C445.659035,62.4847081 434.149681,58.3567721 423.392695,63.852289 C417.422672,69.296992 415.58028,80.7879223 417.86552,98.3250798 C418.244663,101.234665 417.346437,112.968312 417.86552,116.169601 C420.46984,132.230981 436.438263,149.131148 441.649226,166.886805 C442.844299,170.958857 441.235222,175.008554 445.303031,181.413359 C448.334144,186.185874 457.329259,193.013394 457.920756,198.128415 C458.53763,203.462891 455.618317,211.680736 449.162815,222.781951 C433.026754,199.384374 422.594322,183.680528 417.86552,175.670412 C408.549181,159.889471 409.279138,152.323362 399.885382,144.25809 C383.33948,130.052142 362.138902,123.921572 336.283649,125.86638 C331.872709,135.203762 330.422277,144.870993 331.932353,154.868073 C333.442428,164.865153 336.510185,177.099718 341.135622,191.571766 C334.67912,188.961986 329.205206,187.657096 324.713882,187.657096 C320.222558,187.657096 317.251371,192.696248 315.800321,202.774553 C320.576726,211.799651 323.547913,218.227454 324.713882,222.057963 C328.48881,234.459571 328.530605,243.719783 331.932353,249.968798 C336.910157,259.11303 345.475754,268.994813 357.629143,279.614145 L381.39867,334.78057 C374.56698,338.009995 359.52864,331.167073 336.283649,314.251804 C320.045478,302.435365 312.442988,281.161009 287.866438,259.274815 C282.180673,254.211462 269.548547,247.25653 258.63078,239.650593 C249.185176,233.070247 241.270086,225.024402 237.253614,229.133052 C232.952512,233.532865 240.586285,248.93968 248.807081,270.84755 C250.682119,275.844401 252.336217,283.613354 253.769376,294.154408 C249.938275,297.447494 246.886472,299.585846 244.613968,300.569465 C236.888541,303.913299 229.698855,306.239277 229.698855,314.251804 C229.698855,320.071071 240.539039,326.417872 244.613968,334.78057 C247.288306,340.268931 250.340108,349.981972 253.769376,363.919691 C241.894976,361.564507 231.333766,358.450592 222.085744,354.577947 C212.837723,350.705301 200.203831,344.106176 184.18407,334.78057 C187.60872,348.317973 190.408604,358.031013 192.583724,363.919691 C194.218052,368.344291 194.163349,370.093392 196.359446,374.52446 C202.939706,387.801456 214.052843,405.165233 229.698855,426.615791 C236.747927,423.437532 246.391902,428.169808 258.63078,440.812619 C270.869659,453.455429 285.378484,473.673092 302.157255,501.465608 C298.570269,502.865525 295.298191,502.657854 292.341021,500.842593 C289.383851,499.027332 284.980333,494.523333 279.130467,487.330597 L262.567249,471.206611 L239.997749,463.308951 L194.478437,435.366889 L172.010151,412.873425 L157.835221,412.873425 L143.619211,404.146917 C139.969105,408.887303 139.969105,416.376927 143.619211,426.615791 C147.269317,436.854654 155.238138,451.718261 167.525674,471.206611 C162.937145,472.83384 156.610547,472.83384 148.545881,471.206611 C140.481215,469.579383 127.228822,465.628879 108.788702,459.355101 C107.548886,477.876299 111.50884,490.296961 120.668562,496.617086 C129.828284,502.937211 137.4785,515.278274 143.619211,533.640274 L179.558814,553.225832 C180.785456,558.415335 173.544259,558.415335 157.835221,553.225832 C142.126184,548.036329 117.24205,537.423679 83.1828194,521.387883 C78.1453433,529.691256 78.1453433,540.303906 83.1828194,553.225832 C88.2202956,566.147758 99.9820667,585.705918 118.468133,611.900314 C126.71604,615.815332 132.029377,618.848566 134.408145,621.000014 C136.405549,622.806543 135.653261,627.060974 137.070778,628.432194 C139.292432,630.581287 141.475243,632.761388 143.619211,634.972496 C151.480648,643.08012 159.449469,652.253999 167.525674,662.494132 C159.727574,666.424728 150.884203,662.099092 140.995562,649.517222 C136.802542,644.182209 126.228796,648.298653 120.668562,645.636191 C100.443543,635.951644 86.0834094,621.583878 57.3075707,609.029006 C46.2268537,604.194499 28.4536513,595.913414 3.98796356,584.18575 C-3.88594443,593.347138 -0.100061758,605.618559 15.3456116,621.000014 C24.5852876,630.201274 28.7214651,646.627836 35.9599671,659.568594 C39.2012153,665.363191 44.9793216,673.113419 53.294286,682.819276 C25.0880222,680.999157 17.5900404,685.523561 30.8003404,696.392491 C44.0106403,707.26142 61.4714667,730.662919 83.1828194,766.596988 C81.1530304,779.202388 84.7302992,790.317132 93.9146258,799.94122 C103.098952,809.565309 114.043819,822.689742 126.749227,839.314521 C128.2605,849.140002 133.009279,858.044392 140.995562,866.027691 C148.981845,874.010989 163.378014,884.244392 184.18407,896.7279 C193.805818,905.057524 201.311928,911.305437 206.702399,915.47164 C212.09287,919.637843 219.758355,925.115797 229.698855,931.905502 C228.041234,936.503862 228.859287,940.409404 232.153013,943.622126 C235.44674,946.834848 242.652194,950.755488 253.769376,955.384044 C257.010312,956.942281 258.63078,959.457534 258.63078,962.929803 C258.63078,966.402071 257.010312,972.090312 253.769376,979.994525 Z" id="Path-133" fill="#E4F461"></path>
                    <path d="M302.450387,733.611959 C305.322503,728.973341 314.885337,727.766546 331.13889,729.991574 C341.445422,731.402486 351.734298,735.32707 369.983508,739.848552 C380.513571,742.457514 376.048073,736.881839 423.955991,755.393137 C438.436947,760.988481 447.717334,767.768336 459.293694,772.969089 C466.469692,776.192951 473.152058,782.058146 484.838028,786.879358 C487.148295,787.832491 491.7282,788.718205 498.577744,789.536501 C495.301318,797.307451 490.721413,801.687327 484.838028,802.676128 C462.627099,806.409046 447.394942,813.399842 436.462812,815.73732 C425.668462,818.045339 412.355529,816.755678 396.200361,815.73732 C392.024711,815.474104 385.304383,815.474104 376.039378,815.73732 C369.204907,808.938106 362.033643,798.510882 354.525584,784.455649 C352.047148,779.815967 346.555838,772.647873 337.396394,766.353685 C330.145534,761.371038 319.404474,757.329657 314.397743,752.76264 C309.178985,748.002218 305.196533,741.618657 302.450387,733.611959 Z" id="Path-134"></path>
                    <path d="M445.496847,699.382117 C440.624285,702.305837 445.357323,712.148339 459.695962,728.909624 C462.399782,732.07028 468.766893,733.629598 473.565929,736.390621 C479.288634,739.683058 483.618994,744.231374 488.385525,749.001935 C496.67472,757.298139 509.745226,772.748796 527.597043,795.353905 L560.168079,798.622065 C557.974931,795.274379 565.728159,790.546388 583.427762,784.438092 C587.943597,782.879635 598.745873,783.066025 604.263884,781.428882 C610.415738,779.603684 634.772005,779.308032 645.984895,775.827001 C651.559713,774.096304 656.104712,770.253975 659.619891,764.300013 C630.261807,752.269817 610.681295,744.250011 600.878355,740.240595 C587.858886,734.915613 583.473794,730.912984 574.695192,728.909624 C556.001888,724.643635 536.520833,719.921165 516.252029,714.742214 L445.496847,699.382117 Z" id="Path-135"></path>
                    <path d="M498.577744,823.138582 C487.878311,825.484249 496.567523,830.818248 502.063693,836.700845 C505.727806,840.622577 510.570354,843.985399 516.591336,846.789313 L536.597007,889.265422 C545.974007,889.241585 552.887792,889.241585 557.338363,889.265422 C565.076248,889.306867 572.373818,889.827911 579.668118,889.265422 C587.184881,888.685779 594.751338,883.063644 605.573522,881.551452 C611.400334,880.737267 621.752871,880.737267 636.631136,881.551452 C640.862351,877.489454 643.0462,874.059946 643.182684,871.262927 C643.429925,866.196098 639.259439,858.062416 636.631136,854.450331 C631.826496,847.8473 620.14188,840.822806 601.577288,833.37685 C590.382079,827.501455 576.571078,825.423494 560.144285,827.142966 C546.181724,828.604496 533.05711,824.922277 521.189558,823.138582 C512.114052,821.774532 503.214258,822.122106 498.577744,823.138582 Z" id="Path-136"></path>
                    <path d="M324.713882,992.788051 C313.731534,985.479791 304.396968,979.859572 296.710185,975.927392 C291.363345,973.192213 283.511392,971.383152 273.372647,967.014478 C270.414626,965.739899 265.555106,963.090651 258.794088,959.066734" id="Path-137"></path>
                    <path d="M224.604284,892.967968 C219.58112,881.435567 220.248271,874.435989 226.605736,871.969232 C232.963201,869.502476 248.231535,870.318937 272.410738,874.418615 C278.770983,877.200459 282.916985,879.238577 284.848745,880.532967 C292.687939,885.78568 295.778809,890.057658 300.217844,892.967968 C308.123584,898.151111 319.280723,903.646351 324.713882,908.21176 C336.414544,918.043666 340.362394,924.746481 336.557432,928.320203 C333.543773,927.868895 331.492708,927.868895 330.404236,928.320203 C324.302404,930.85018 320.682911,934.346152 317.707044,934.163745 C307.214327,933.520592 298.816275,926.034474 291.753985,926.034474 C280.883348,926.034474 274.435599,926.796384 272.410738,928.320203 C270.097333,924.674886 268.150066,922.078532 266.568938,920.531141 C263.319674,917.351209 258.862677,914.813051 255.39432,912.248248 C249.394352,907.811351 239.131007,901.384591 224.604284,892.967968 Z" id="Path-138"></path>
                    <path d="M225.694074,870.579234 C213.633602,857.694541 204.835936,849.243931 199.301075,845.227405 C191.346222,839.454743 179.474139,838.969735 176.284608,834.951921 C169.766239,826.740808 170.45524,818.737666 178.351612,810.942495 C191.538138,803.884331 203.148132,801.108096 213.181592,802.613789 C223.215052,804.119482 236.702003,810.661944 253.642445,822.241177 C268.765701,830.961295 280.15483,838.623371 287.809831,845.227405 C295.464832,851.831438 301.357946,859.078898 305.489173,866.969784 C302.118976,874.376918 297.54058,878.546369 291.753985,879.478138 C289.225299,879.885312 285.190533,876.516977 282.033076,876.659801 C275.107719,876.973063 264.992243,872.310509 256.118336,870.579234 C250.078584,869.400895 239.937163,869.400895 225.694074,870.579234 Z" id="Path-139"></path>
                    <path d="M178.351612,810.942495 C170.865449,803.637706 165.111052,797.849577 161.088423,793.578107 C155.298919,787.430463 146.853438,776.728706 142.673138,772.969089 C139.590183,770.196386 134.554959,769.378042 131.653413,767.280174 C128.231273,764.805908 124.062941,761.611582 119.148418,757.697197 C119.148418,755.269281 119.148418,753.131698 119.148418,751.284449 C119.148418,749.4372 119.148418,746.418096 119.148418,742.227137 C120.101447,739.270806 122.073881,736.399661 125.06572,733.6137 C128.057559,730.82774 132.459348,727.763295 138.271087,724.420364 C149.289504,723.350349 156.895283,723.350349 161.088423,724.420364 C165.281563,725.490379 169.68463,728.554825 174.297622,733.6137 C187.141008,736.329406 196.279321,739.200552 201.712562,742.227137 C207.145802,745.253722 210.537869,749.36262 211.888761,754.553831 C214.599549,751.056265 219.172475,753.251084 225.607539,761.138286 C232.042603,769.025488 241.351784,778.791267 253.535083,790.435624 C253.378462,792.922629 252.223922,795.651443 250.071464,798.622065 C247.919005,801.592687 244.120576,805.699497 238.676178,810.942495" id="Path-140"></path>
                    <path d="M277.33743,658.052853 C255.886987,632.083875 239.19171,613.045919 227.251599,600.938985 C218.398963,591.962663 203.411288,584.526128 189.330787,572.568009 C186.056947,569.787641 182.00194,564.425513 177.165769,556.481626" id="Path-141"></path>
                    <path d="M177.165769,558.792023 C166.855727,568.212403 159.589152,576.356551 155.366044,583.224468 C151.142936,590.092384 145.48776,601.88044 138.400514,618.588634 C151.070429,615.712929 160.652893,614.546651 167.147907,615.089802 C175.923924,615.823704 188.702224,623.279008 192.896313,623.865102 C197.271365,624.476484 200.157963,623.034224 203.343028,623.865102 C227.759197,630.234475 243.676329,646.961884 265.152644,653.396862 C303.582381,664.911616 323.073283,672.266826 323.625352,675.462491 C313.728522,680.00724 306.6702,683.107066 302.450387,684.761968 C291.380589,689.103258 282.550959,691.581862 277.33743,694.849663 C269.1428,699.985996 261.904378,707.731223 255.622164,718.085344 C245.357891,716.236737 238.264975,715.312433 234.343415,715.312433 C230.421855,715.312433 228.057917,716.236737 227.251599,718.085344 C214.811013,702.70952 205.166784,691.601728 198.318912,684.761968 C191.47104,677.922209 181.080705,669.01917 167.147907,658.052853" id="Path-142"></path>
                    <path d="M315.819337,523.829952 L328.688869,526.875551 C336.012937,540.792412 344.179019,552.805134 353.187116,562.913718 C362.195213,573.022301 373.751168,585.035024 387.854981,598.951884" id="Path-143"></path>
                    <path d="M488.388263,653.183894 C491.674698,660.266579 493.317915,667.450609 493.317915,674.735983 C493.317915,682.021358 491.674698,693.114906 488.388263,708.016628" id="Path-144"></path>
                    <path d="M493.317915,671.109789 C523.044319,668.269591 545.537882,665.955412 560.798603,664.16725 C576.059325,662.379088 598.552888,659.421941 628.279292,655.295807" id="Path-145"></path>
                    <path d="M608.495663,610.658654 C608.994958,617.670638 606.355053,624.884444 600.575947,632.300071 C596.779829,637.17117 587.508772,643.101253 579.199002,650.462221 C576.305139,653.025665 572.421222,657.272524 567.547251,663.202798" id="Path-146"></path>
                    <path d="M431.324429,526.875551 C424.449575,533.46735 416.122688,541.451397 406.343769,550.827692 C402.804067,554.221656 391.0142,555.76289 387.854981,558.792023 C384.142606,562.351534 381.978574,567.680827 381.362885,574.7799" id="Path-147"></path>
                    <path d="M384.801803,676.504863 C373.43147,673.484695 359.544311,663.569329 343.140325,646.758766 C331.177426,634.499363 300.375425,612.922619 284.16603,591.720709 C280.154332,586.473403 279.416115,579.601587 281.951378,571.105262 C309.686877,578.421887 328.37316,583.524904 338.010226,586.414312 C348.115313,589.444044 355.952671,593.892639 362.000988,595.47251 C379.003898,599.913814 393.136374,598.929509 404.688408,602.549215 C431.222153,610.863278 462.868609,623.117477 499.627775,639.311813 C506.535098,641.924013 499.06208,646.769352 477.20872,653.84783 C467.126651,657.113493 448.565072,655.846644 435.668294,660.104581 C420.109527,665.241387 403.15403,670.708148 384.801803,676.504863 Z" id="Path-148"></path>
                    <path d="M431.324429,515.79892 C441.641736,547.472295 446.80039,565.907742 446.80039,571.105262 C446.80039,573.637019 454.579071,578.201346 464.892638,586.602845 C472.132283,592.500306 487.834915,604.901046 512.000534,623.805063 C532.796186,620.14442 547.186422,617.61638 555.171241,616.220942 C569.198006,613.769606 578.85136,611.911264 588.051237,610.658654 C605.10674,608.336461 618.516092,606.025169 628.279292,603.724777 C633.093853,602.097557 635.501134,599.363776 635.501134,595.523434 C635.501134,591.683091 626.519164,586.14246 608.555223,578.901542 L608.555223,569.801991 L555.171241,553.707725 C543.716961,553.205208 535.17618,552.245209 529.548897,550.827726 C519.892802,548.395407 511.478564,542.438646 502.116126,538.955562 C493.798657,535.861235 484.500379,535.248379 476.438168,532.780582 C451.367791,525.106682 436.329878,519.446128 431.324429,515.79892 Z" id="Path-149"></path>
                    <path d="M346.316706,199.37213 C334.014219,199.446886 329.137189,206.989968 331.685614,222.001375 C332.548521,227.084297 343.865971,229.755776 346.316706,235.874598 C349.508058,243.842538 354.103968,258.747093 360.104438,280.588264 C363.159873,288.928993 365.869917,294.22282 368.234571,296.469744 C372.373828,300.402919 376.067624,301.557299 385.122136,300.516593 C392.597759,299.657362 400.797447,290.223693 411.6384,285.972287 C420.666031,282.431995 437.152396,276.768014 461.097494,268.980344 C467.03831,265.082166 471.020798,261.629132 473.044961,258.621242 C475.069123,255.613352 476.374167,251.209152 476.960093,245.408641 C457.057385,232.939327 441.547168,224.0267 430.429441,218.670759 C419.311715,213.314818 411.939863,211.204057 408.313886,212.338478 L394.967944,209.022941 L381.39867,199.37213 C374.901965,197.359722 369.673167,196.353519 365.712276,196.353519 C361.751385,196.353519 355.286195,197.359722 346.316706,199.37213 Z" id="Path"></path>
                    <path d="M319.416469,523.829952 C315.737306,530.384753 312.240049,534.266388 308.924698,535.474858 C289.620306,542.511457 273.109893,545.644624 261.327956,550.827726 C246.51086,557.346052 238.502969,562.020097 237.30428,564.849859 C228.900958,558.316121 222.796521,553.642076 218.990969,550.827726 C208.28981,542.913813 199.186811,536.545253 194.08621,531.197686 C189.347625,526.229664 185.173772,516.786096 181.29281,511.959209 C175.605464,504.88566 167.146512,497.862986 164.233224,492.252044 C161.568762,487.120334 161.568762,481.025939 164.233224,473.968861 C179.669073,475.405811 190.840757,476.877532 197.748276,478.384024 C208.71671,480.77618 222.29527,486.701839 227.251599,487.699354 C243.099756,490.888968 244.103066,489.121294 253.535083,492.252044 C263.751553,495.643175 269.108358,501.160719 282.743221,508.116125 C289.700817,511.665328 301.925233,516.90327 319.416469,523.829952 Z" id="Path-2"></path>
                    <path d="M436.462731,337.633042 C443.510634,352.218282 448.1753,362.586468 450.456728,368.737601 C452.805099,375.069224 451.081098,387.447404 453.395882,392.560672 C455.872732,398.031937 463.276771,398.69248 466.787936,401.598707 C472.927299,406.68032 476.059219,412.000367 483.90234,414.397116 C494.260684,417.562483 502.774049,413.940154 522.130176,411.157595 C532.181605,409.712641 561.82054,411.752445 585.768573,406.847756 C594.084743,405.144558 604.231177,400.382197 616.207876,392.560672" id="Path-3"></path>
                    <path d="M688.088516,356.176386 C679.687841,362.036112 670.372711,366.943825 660.143127,370.899524 C649.913543,374.855224 633.84562,379.762937 611.93936,385.622663" id="Path-4"></path>
                    <path d="M714.070551,248.616368 C692.090246,227.775294 673.39824,214.19561 657.994535,207.877315 C654.854367,206.58928 653.338277,197.391071 650.013938,196.353519 C646.142514,195.145217 642.586325,199.259861 638.54101,198.414957 C629.223167,196.468834 614.662047,188.517771 597.97264,188.748757 C593.565921,188.809747 593.249873,190.451218 585.733786,192.079649 C583.302103,192.606497 573.607481,191.053026 568.344351,192.079649 C564.701905,192.790143 559.661645,194.901912 553.223569,198.414957 C550.960161,205.720039 550.960161,211.801946 553.223569,216.660679 C556.059856,222.749178 567.76869,228.908925 571.400939,237.148217 C575.839015,247.215423 584.121898,258.53768 588.502301,268.989502 C590.832998,274.55064 593.019461,282.660598 595.06169,293.319373 C605.617876,294.135306 613.303468,294.135306 618.118466,293.319373 C636.100703,290.272167 650.092704,283.955549 657.994535,282.467456 C669.625708,280.277045 678.384494,281.291259 686.023743,278.421733 C694.608022,275.197227 697.996675,268.83372 702.640042,264.338581 C706.234052,260.8593 710.044222,255.618563 714.070551,248.616368 Z" id="Path-5"></path>
                </g>
                <path d="M254.050554,294.973077 C267.481722,306.371147 277.1089,313.743578 282.932086,317.09037 C297.768969,325.617653 310.05335,327.145585 318.620695,332.787893 C332.231813,341.751944 343.431883,350.698115 352.220905,359.626404 L388.190463,419.118046 C376.068328,419.690752 363.175067,418.642429 349.51068,415.973077 C335.846294,413.303725 315.171816,407.794557 287.487246,399.445571 C282.484931,397.941797 281.811476,402.802364 285.466882,414.027272 C287.488572,420.235415 296.136694,427.668942 300.609663,437.165696 C303.019383,442.281877 305.634061,451.169546 308.453698,463.828703 L364.465051,502.520355 C365.771375,498.690544 374.825791,494.665036 391.6283,490.44383 C404.287573,487.263507 419.24858,487.972488 443.557095,483.853236 C448.861027,482.954447 458.615142,480.103052 472.819439,475.299051 C473.464171,489.347223 474.908631,500.167236 477.152817,507.759091 C479.397003,515.350945 484.029582,525.088941 491.050554,536.973077" id="Path-132"></path>
                <path d="M382.050554,335.453781 L404.483104,409.585373 C406.837383,394.574909 409.927042,382.870811 413.752081,374.473077 C416.045882,369.437121 422.409624,364.33963 427.513224,356.674112 C429.784514,353.262675 432.929166,347.141864 436.947182,338.311681 C433.532063,329.673211 431.824503,323.692539 431.824503,320.369665 C431.824503,317.04679 433.532063,313.581261 436.947182,309.973077 C449.797598,315.019651 459.957997,318.48518 467.428378,320.369665 C495.84557,327.53821 523.616625,332.443468 537.857744,338.311681 C543.397618,340.594448 548.364583,346.085595 553.648219,348.491387 C574.370097,357.926657 591.589493,365.089698 602.619917,374.473077 C605.512776,376.933979 605.942213,382.478158 608.315207,384.779088 C610.508535,386.905807 613.753651,389.457383 618.050554,392.433815 C608.871533,401.691811 602.98789,409.28781 600.399624,415.221813 C597.811358,421.155816 596.927944,429.072904 597.749382,438.973077" id="Path-150"></path>
            </g>
        </g>
    </g>
</svg>