<?xml version="1.0" encoding="UTF-8"?>
<svg width="505px" height="205px" viewBox="0 0 505 205" version="1.1" xmlns="http://www.w3.org/2000/svg" xmlns:xlink="http://www.w3.org/1999/xlink">
    <title>Group 4 Copy</title>
    <g id="Page-1" stroke="none" stroke-width="1" fill="none" fill-rule="evenodd">
        <g id="Artboard" transform="translate(-524.000000, -165.000000)">
            <g id="Group-4-Copy" transform="translate(524.000000, 178.000000)">
                <g id="Group-2" transform="translate(0.000000, 62.498534)" fill="#C2E531" fill-rule="nonzero">
                    <g id="Group" transform="translate(0.476733, 0.000000)">
                        <path d="M37.9855713,98.7447649 C43.5697749,98.7447649 48.2016337,97.9655738 51.8811478,96.4071918 C55.5606618,94.8488098 58.4718067,92.7493229 60.6145825,90.1087312 C62.7573583,87.4681394 64.2724523,84.3297312 65.1598645,80.6935065 C66.0472768,77.0572818 66.4909829,73.1396826 66.4909829,68.9407088 L66.4909829,68.9407088 L66.4909829,58.4865628 L59.0237338,58.4865628 L59.0237338,68.1615178 C59.0237338,69.5034578 58.9588012,70.747999 58.828936,71.8951414 C58.6990708,73.0422837 58.3852299,74.0595608 57.8874133,74.9469728 C57.3895967,75.8343848 56.7186265,76.5486432 55.8745027,77.0897481 C55.0303789,77.6308529 53.9157026,77.9014054 52.5304738,77.9014054 C50.0197465,77.9014054 48.3639652,76.9923492 47.5631298,75.1742369 C46.7622944,73.3561245 46.3618767,71.0185515 46.3618767,68.1615178 L46.3618767,68.1615178 L46.3618767,48.2272145 L65.7767243,48.2272145 L65.7767243,24.1372258 L46.3618767,24.1372258 L46.3618767,0.0472371351 L22.596545,0.0472371351 C22.596545,3.68346184 22.0446179,7.1032446 20.9407636,10.3065854 C19.8369094,13.5099262 18.278527,16.3561378 16.2656164,18.8452202 C14.2527058,21.3343026 11.8501996,23.2822801 9.05809776,24.6891528 C6.26599594,26.0960254 3.24663002,26.7994618 0,26.7994618 L0,26.7994618 L0,48.2272145 L10.1944183,48.2272145 L10.1944183,68.9407088 C10.1944183,73.2262593 10.486615,77.187147 11.0710084,80.8233717 C11.6554018,84.4595964 12.8999433,87.5980046 14.8046329,90.2385963 C16.7093225,92.8791881 19.5014243,94.9570308 23.1809384,96.4721244 C26.8604524,97.987218 31.79533,98.7447649 37.9855713,98.7447649 Z M116.953535,98.4850345 C122.884046,98.4850345 128.262629,97.9763959 133.089286,96.9591188 C137.915943,95.9418416 142.147384,94.2752387 145.783609,91.9593098 C149.419835,89.643381 152.395913,86.6023716 154.711842,82.8362818 C157.027771,79.0701919 158.61862,74.3950458 159.484388,68.8108436 L159.484388,68.8108436 L135.848922,68.8108436 C135.589191,71.1484166 135.037264,73.0855721 134.19314,74.6223099 C133.349016,76.1590477 132.342561,77.3927668 131.173774,78.3234672 C130.004987,79.2541675 128.738802,79.9251376 127.375217,80.3363773 C126.011633,80.747617 124.615582,80.9532368 123.187064,80.9532368 C118.944801,80.9532368 115.687349,79.7303398 113.414708,77.2845458 C111.142067,74.8387518 109.91917,70.3908698 109.746016,63.9408998 L109.746016,63.9408998 L161.107703,63.9408998 C161.19428,57.5342182 160.393445,51.7119298 158.705197,46.4740347 C157.016949,41.2361396 154.376357,36.7557913 150.78342,33.0329898 C147.190482,29.3101883 142.558624,26.4098662 136.887843,24.3320236 C131.217063,22.2541809 124.442428,21.2152595 116.563939,21.2152595 C110.157256,21.2152595 104.280856,22.0377389 98.9347382,23.6826977 C93.5886207,25.3276565 88.9567619,27.7626284 85.0391617,30.9876134 C81.1215615,34.2125984 78.0805513,38.2275965 75.9161313,43.0326078 C73.7517113,47.837619 72.6695013,53.4218212 72.6695013,59.7852144 C72.6695013,66.4516264 73.8166439,72.1981601 76.1109291,77.0248155 C78.4052143,81.8514709 81.5760897,85.8556469 85.6235551,89.0373435 C89.6710205,92.2190402 94.3786341,94.5890795 99.7463957,96.1474615 C105.114157,97.7058435 110.84987,98.4850345 116.953535,98.4850345 Z M128.771268,52.5776976 L109.746016,52.5776976 C110.222189,47.6428212 111.185355,44.1039954 112.635517,41.9612201 C114.085678,39.8184448 116.325853,38.7470572 119.356041,38.7470572 C122.256364,38.7470572 124.485716,39.9915984 126.044099,42.4806808 C127.602481,44.9697632 128.511538,48.3354355 128.771268,52.5776976 L128.771268,52.5776976 Z M226.115158,95.6929334 L226.115158,71.6029447 L222.219202,71.6029447 C219.924916,71.6029447 218.377356,71.1159503 217.576521,70.1419616 C216.775685,69.1679728 216.375267,67.5338361 216.375267,65.2395515 L216.375267,65.2395515 L216.375267,50.3699898 C216.375267,45.9112857 216.90555,42.6430123 217.966116,40.5651696 C219.026682,38.4873269 220.011493,37.4484055 220.92055,37.4484055 C221.353434,37.4484055 221.504943,37.5999149 221.375078,37.9029336 C221.245213,38.2059523 220.996304,38.6929467 220.628353,39.3639168 C220.260401,40.0348868 219.903272,40.9006546 219.556965,41.9612201 C219.210658,43.0217857 219.037504,44.3096152 219.037504,45.8247089 C219.037504,48.9414729 220.282046,51.6037088 222.771129,53.8114167 C225.260212,56.0191246 228.669173,57.1229785 232.998013,57.1229785 C236.114778,57.1229785 238.733726,56.6359841 240.854858,55.6619954 C242.975989,54.6880066 244.707525,53.400177 246.049466,51.7985066 C247.391406,50.1968362 248.365395,48.400368 248.971433,46.4091021 C249.577471,44.4178362 249.880489,42.4049261 249.880489,40.3703718 C249.880489,37.9029336 249.555826,35.5112501 248.9065,33.1953213 C248.257174,30.8793924 247.196609,28.8340161 245.724803,27.0591921 C244.252997,25.2843681 242.315841,23.8666734 239.913335,22.8061078 C237.510829,21.7455423 234.642972,21.2152595 231.309766,21.2152595 C225.682274,21.2152595 221.104525,22.9684393 217.576521,26.4747988 C214.048516,29.9811584 211.526967,35.1541209 210.011873,41.9936864 L210.011873,41.9936864 L208.908018,41.9936864 L210.011873,24.1372258 L171.441908,24.1372258 L171.441908,48.2272145 L174.883336,48.2272145 C176.39843,48.2272145 177.751192,48.5843437 178.941623,49.2986021 C180.132054,50.0128605 180.72727,51.3872669 180.72727,53.4218212 L180.72727,53.4218212 L180.72727,65.7590122 C180.72727,67.3606826 180.26192,68.7350889 179.331219,69.8822313 C178.400518,71.0293736 177.047756,71.6029447 175.272931,71.6029447 L175.272931,71.6029447 L171.441908,71.6029447 L171.441908,95.6929334 L226.115158,95.6929334 Z M311.446516,128.938416 L311.446516,104.848428 L307.615493,104.848428 C305.277919,104.848428 303.708714,104.361433 302.907879,103.387445 C302.107044,102.413456 301.706626,100.779319 301.706626,98.4850345 L301.706626,98.4850345 L301.706626,92.1216413 C303.308297,92.9008323 304.909968,93.647557 306.511638,94.3618154 C308.113309,95.0760739 309.801557,95.6929334 311.576381,96.2123941 C313.351206,96.7318547 315.320828,97.1322723 317.485248,97.4136469 C319.649668,97.6950214 322.117107,97.8357087 324.887564,97.8357087 C335.060338,97.8357087 343.079514,94.5999016 348.945093,88.1282874 C354.810671,81.6566732 357.74346,72.2089822 357.74346,59.7852144 C357.74346,47.3614467 354.875604,37.9353999 349.139891,31.5070741 C343.404177,25.0787483 335.449934,21.8645854 325.27716,21.8645854 C318.177862,21.8645854 312.593659,23.3363906 308.524549,26.2800011 C304.455439,29.2236116 301.620049,32.946413 300.018378,37.4484055 L300.018378,37.4484055 L298.914524,37.4484055 L298.914524,24.1372258 L256.773266,24.1372258 L256.773266,48.2272145 L260.214694,48.2272145 C261.729788,48.2272145 263.093373,48.5843437 264.305448,49.2986021 C265.517523,50.0128605 266.123561,51.3872669 266.123561,53.4218212 L266.123561,53.4218212 L266.123561,99.0044952 C266.123561,100.606166 265.658211,101.980572 264.72751,103.127714 C263.796809,104.274857 262.444047,104.848428 260.669222,104.848428 L260.669222,104.848428 L256.773266,104.848428 L256.773266,128.938416 L311.446516,128.938416 Z M311.316651,79.5896526 C309.628403,79.5896526 307.788646,79.2541675 305.79738,78.5831975 C303.806113,77.9122275 302.442529,77.0139934 301.706626,75.8884953 L301.706626,75.8884953 L301.706626,59.9150796 C301.706626,57.620795 301.847313,55.4563755 302.128688,53.4218212 C302.410062,51.3872669 302.897057,49.6340871 303.589671,48.1622819 C304.282286,46.6904767 305.256275,45.5325122 306.511638,44.6883887 C307.767002,43.8442651 309.368673,43.4222033 311.316651,43.4222033 C313.264629,43.4222033 314.833833,43.8659093 316.024264,44.7533212 C317.214695,45.6407332 318.16704,46.8636302 318.881299,48.4220122 C319.595557,49.9803942 320.082552,51.7985066 320.342282,53.8763493 C320.602013,55.954192 320.731878,58.1402556 320.731878,60.4345403 C320.731878,62.7721133 320.602013,65.0880421 320.342282,67.3823268 C320.082552,69.6766114 319.595557,71.7328099 318.881299,73.5509223 C318.16704,75.3690346 317.214695,76.8300177 316.024264,77.9338717 C314.833833,79.0377256 313.264629,79.5896526 311.316651,79.5896526 Z M422.621049,95.6929334 L422.621049,71.6029447 L420.867869,71.6029447 C418.660161,71.6029447 416.842048,71.1592387 415.413531,70.2718268 C413.985013,69.3844148 413.270755,67.4905477 413.270755,64.5902257 L413.270755,64.5902257 L413.270755,0.0472371351 L367.9478,0.0472371351 L367.9478,24.1372258 L369.376317,24.1372258 C371.45416,24.1372258 373.283095,24.7324412 374.863122,25.9228719 C376.443148,27.1133026 377.233162,28.9638812 377.233162,31.4746078 L377.233162,31.4746078 L377.233162,64.7200908 C377.233162,66.408338 376.681235,67.9775421 375.57738,69.4277032 C374.473526,70.8778642 372.774456,71.6029447 370.480171,71.6029447 L370.480171,71.6029447 L367.9478,71.6029447 L367.9478,95.6929334 L422.621049,95.6929334 Z M486.135054,95.6929334 L486.135054,71.6029447 L484.381874,71.6029447 C482.174165,71.6029447 480.356053,71.1592387 478.927535,70.2718268 C477.499018,69.3844148 476.784759,67.4905477 476.784759,64.5902257 L476.784759,64.5902257 L476.784759,24.1372258 L431.461804,24.1372258 L431.461804,48.2272145 L432.890322,48.2272145 C434.968165,48.2272145 436.7971,48.8224298 438.377126,50.0128605 C439.957153,51.2032912 440.747166,53.0538699 440.747166,55.5645965 L440.747166,55.5645965 L440.747166,64.7200908 C440.747166,66.408338 440.195239,67.9775421 439.091385,69.4277032 C437.987531,70.8778642 436.288461,71.6029447 433.994176,71.6029447 L433.994176,71.6029447 L431.461804,71.6029447 L431.461804,95.6929334 L486.135054,95.6929334 Z" id="terpli"></path>
                    </g>
                </g>
                <path d="M457.963719,61.6420763 C463.012916,65.4724338 466.374057,67.8170797 468.047141,68.6760139 C469.720226,69.5349481 472.921406,70.675508 477.650681,72.0976934 C476.835956,67.9851257 476.052344,65.2338286 475.299845,63.8438018 C474.547345,62.4537751 471.779238,61.1633393 466.995523,59.9724944 C473.684492,58.9302504 478.646863,57.5144582 481.882636,55.7251178 C484.188284,54.4501241 486.849632,52.2924239 490.957433,49.8749281 C492.062188,49.224765 494.047755,48.2603732 496.914132,46.9817525 C488.924641,46.9344101 483.143526,47.2648539 479.570788,47.9730839 C475.99805,48.681314 471.570883,50.3992578 466.289288,53.1269153 C473.744576,46.3167791 478.331073,41.5996452 480.048782,38.9755136 C481.76649,36.3513821 483.771384,32.1959292 486.063463,26.509155 C480.65106,29.2415238 476.404377,31.7736732 473.323413,34.1056032 C470.242449,36.4375333 465.122551,45.0598303 457.963719,59.9724944 C462.582911,48.7558772 464.241944,39.2933962 462.940817,31.5850514 C461.639691,23.8767065 459.352712,13.3483561 456.079882,4.8008518e-14 C455.665121,10.5918956 453.829354,20.0246494 450.572581,28.2982613 C447.315807,36.5718733 449.553073,47.1299509 457.28438,59.9724944 C449.906056,47.5616572 445.137687,39.5748222 442.979271,36.0119894 C440.820856,32.4491566 436.66576,29.2815452 430.513983,26.509155 C432.917998,33.2585316 435.14742,38.5492605 437.20225,42.3813417 C439.25708,46.2134229 442.79673,50.2209826 447.8212,54.4040207 C439.887548,51.1068941 434.757499,49.2312245 432.431051,48.7770119 C430.104604,48.3227994 426.331282,48.3227994 421.111084,48.7770119 C426.308878,51.435659 430.082201,53.7516943 432.431051,55.7251178 C434.779902,57.6985413 439.607461,59.1143335 446.913729,59.9724944 C443.552511,60.3713662 441.152325,61.2394904 439.713172,62.576867 C438.274018,63.9142436 436.767358,66.6766735 435.193191,70.8641567 C441.119146,69.4601983 445.328483,68.2756084 447.8212,67.3103868 C450.313918,66.3451653 453.694758,64.4557285 457.963719,61.6420763 Z" id="Path-Copy-14" stroke="#C2E531" stroke-width="3.37829912"></path>
            </g>
        </g>
    </g>
</svg>