<?xml version="1.0" encoding="UTF-8"?>
<svg width="1685px" height="1715px" viewBox="0 0 1685 1715" version="1.1" xmlns="http://www.w3.org/2000/svg" xmlns:xlink="http://www.w3.org/1999/xlink">
    <title>Artboard</title>
    <g id="Artboard" stroke="none" stroke-width="1" fill="none" fill-rule="evenodd">
        <rect fill="#CEF6B5" x="0" y="0" width="1685" height="1715"></rect>
        <g id="Group-7-Copy" transform="translate(353.000000, 420.500000)" stroke="#4D3370" stroke-width="4.63954686">
            <g id="lemon" transform="translate(0.000000, 0.500000)">
                <path d="M14.8259705,312.659785 C2.35384022,352.312763 -2.24929253,386.285544 1.01657226,414.578129 C9.80905776,490.748502 46.4909629,578.79745 64.1476357,617.810636 C81.8043086,656.823823 101.116211,699.146557 133.612813,735.077875 C183.954802,790.74074 265.369138,853.054498 301.022827,869.661513 C359.691573,896.988636 381.882503,896.988636 425.414397,899.702164 C518.229924,905.487749 608.588303,885.667834 668.439075,869.661513 C727.533164,853.857557 763.261658,831.899865 800.636539,805.041162 C846.672612,771.958267 889.431461,731.826487 911.586418,691.278302 C951.728114,617.810636 999.40141,450.049882 968.974693,300.353227 C963.78653,274.82794 945.721939,250.002887 935.064758,226.933351 C919.852429,194.00331 895.605469,150.34376 847.787672,104.631049 C836.343959,93.6911222 814.654824,77.9036667 782.720269,57.268682 C728.845389,34.6771044 685.426207,20.0740505 652.462724,13.4595204 C619.49924,6.84499028 567.785675,2.35848348 497.322029,0 C448.00773,5.44435688 416.784251,9.93086368 403.651593,13.4595204 C351.626368,27.4383483 342.114297,42.3179202 317.953046,50.9669654 C282.07411,63.8106113 246.115417,73.700687 222.505249,88.887406 C183.602484,113.91075 143.149569,136.810949 92.553703,197.142346 C77.3052182,215.324906 51.395974,253.83072 14.8259705,312.659785 Z" id="Path" fill="#E4F461"></path>
                <path d="M0.0502916631,391.229081 C75.6868652,639.793156 251.790447,748.762665 528.361038,718.137609 C611.028595,708.983712 697.078278,681.772665 760.452425,634.437271 C882.396541,543.354815 942.690648,410.226983 948.005931,375.501881 C953.391015,340.320763 955.812181,302.612688 955.26943,262.377656" id="Path-2"></path>
                <path d="M422.106531,351.714239 C381.107526,332.779424 329.505212,313.082598 267.299589,292.623762 C233.117945,281.381745 164.427813,251.929528 148.76859,253.810851 C133.109367,255.692174 89.9907276,297.748971 78.9123724,333.080369 C67.8340171,368.411767 75.0141585,441.555057 91.6445325,435.992481 C99.7614573,433.277508 142.843776,420.162824 218.576145,400.690871 C271.53082,387.075412 339.374282,370.749868 422.106531,351.714239 Z" id="Path-3"></path>
                <path d="M165.716303,234.157775 C162.483718,231.207831 165.030386,216.994607 176.821209,201.611562 C192.075921,181.709311 220.078668,158.71527 242.726714,143.836611 C282.880114,117.457792 345.434629,81.3123064 354.798828,105.538575 C364.163027,129.764843 447.308997,311.92555 436.681438,323.293825 C426.053879,334.6621 173.131137,240.924293 165.716303,234.157775 Z" id="Path-4"></path>
                <path d="M384.398327,100.015751 C384.398327,83.0809978 433.8835,60.4804431 489.339423,60.4804431 C544.795346,60.4804431 605.652424,64.6819325 613.049591,75.900388 C620.446757,87.1188436 577.923587,159.309893 558.772987,194.361584 C524.720687,256.688125 492.375058,317.364166 482.192962,323.293825 C458.330388,337.190465 384.398327,116.950503 384.398327,100.015751 Z" id="Path-5"></path>
                <path d="M638.173803,94.8702803 C622.019583,107.968527 496.767602,323.293825 520.841568,323.293825 C536.890879,323.293825 634.620284,281.543681 814.029782,198.043392 C807.498759,173.391927 800.928389,156.790279 794.318674,148.238448 C782.477245,132.917683 760.123557,124.230804 749.151757,117.409344 C735.719509,109.058159 719.924533,94.6301015 691.680909,88.9986343 C677.538319,86.178758 654.328023,81.772034 638.173803,94.8702803 Z" id="Path-6"></path>
                <path d="M685.306704,206.14623 C672.387447,200.100006 652.093349,200.100006 640.140029,206.14623 C551.626696,250.918007 538.582823,302.247493 538.582823,302.247493 C538.582823,302.247493 572.236322,297.020785 635.553264,264.388639 C650.934511,256.461486 698.225962,212.192453 685.306704,206.14623 Z" id="Path-7"></path>
                <path d="M100.895633,467.912202 C114.550311,450.721156 234.76168,424.271012 307.791099,406.482481 C356.477378,394.62346 399.440824,387.836427 436.681438,386.12138 C394.739366,416.704294 366.475424,438.118799 351.889611,450.364896 C262.127384,525.72833 223.750765,565.626069 212.428713,576.909341 C191.306166,597.959542 160.984782,580.494054 142.456367,556.032657 C123.927951,531.57126 87.2409551,485.103249 100.895633,467.912202 Z" id="Path-8"></path>
                <path d="M465.14615,395.310773 C482.192962,401.536528 468.559663,467.440964 465.14615,526.883216 C461.465142,590.983576 454.881448,646.858609 448.664177,651.716702 C436.681438,661.079855 364.820116,661.079855 324.106003,651.716702 C309.929599,648.45651 277.865913,640.704913 259.52923,630.876417 C242.757726,621.88686 212.075362,612.167879 219.801313,596.872728 C227.527264,581.577578 441.288345,386.59754 465.14615,395.310773 Z" id="Path-9"></path>
                <path d="M512.714406,395.310773 C495.468794,395.310773 485.294979,480.779416 482.192962,651.716702 C526.996278,655.862985 560.848568,655.862985 583.749833,651.716702 C606.651098,647.570419 640.503389,635.312479 685.306704,614.94288 C587.490783,468.521476 529.960017,395.310773 512.714406,395.310773 Z" id="Path-10"></path>
                <path d="M538.582823,386.12138 C552.951716,397.439271 703.370311,582.561158 724.172585,588.453712 C744.974859,594.346266 766.686911,574.401277 782.720269,564.191141 C800.021898,553.173363 814.017331,534.676779 822.257969,525.068594 C832.506321,513.11951 847.936683,496.314711 856.788654,471.83421 C861.650553,458.388421 879.458726,424.416322 864.862282,424.416322 C858.275003,424.416322 804.115821,414.721527 710.26995,403.022474 C665.483373,397.439271 524.21393,374.803489 538.582823,386.12138 Z" id="Path-11"></path>
                <path d="M537.561592,351.627126 C582.131758,361.033424 643.584148,369.024077 721.918761,375.599085 C762.729522,379.024532 832.926461,391.729894 853.13079,390.837437 C873.33512,389.944979 880.184203,373.360081 883.747496,363.708585 C890.616576,345.10307 888.199459,319.860804 883.747496,300.26879 C873.605408,255.635914 853.13079,206.14623 834.37876,214.4162 C822.90297,219.477222 718.325409,265.338333 633.422725,300.26879 C597.534283,315.033926 565.580572,332.153372 537.561592,351.627126 Z" id="Path-12"></path>
            </g>
        </g>
    </g>
</svg>