<?xml version="1.0" encoding="UTF-8"?>
<svg width="1685px" height="1715px" viewBox="0 0 1685 1715" version="1.1" xmlns="http://www.w3.org/2000/svg" xmlns:xlink="http://www.w3.org/1999/xlink">
    <title>Artboard Copy 3</title>
    <g id="Artboard-Copy-3" stroke="none" stroke-width="1" fill="none" fill-rule="evenodd">
        <rect fill="#CEF6B5" x="0" y="0" width="1685" height="1715"></rect>
        <g id="Group-4-Copy" transform="translate(141.000000, 506.000000)" stroke="#4D3370">
            <path d="M0,561.080083 L86.6703195,548.668257 C97.6585139,554.282801 104.84216,558.420076 108.221259,561.080083 C136.95288,583.69745 159.194733,597.661869 187.606993,602.165762 C220.825976,607.431613 267.810604,617.569357 307.010922,618.027261 C336.04789,618.366446 355.843855,603.548911 380.792193,602.165762 C416.217253,600.201778 453.892851,609.999023 474.4271,609.999023 C514.87016,609.999023 529.240212,632.835008 551.456723,643.655932 C572.072279,653.697083 590.992734,673.43257 608.218087,702.862392 C605.611292,684.79907 602.376097,671.433622 598.512501,662.766048 C590.845102,645.565038 574.202372,626.252171 570.162083,618.027261 C558.319536,593.919108 552.644769,582.282307 540.752464,568.546915 C518.174249,542.469491 473.000927,509.093109 405.2325,468.41777 L474.4271,459.715967 C496.52829,499.574183 518.636745,525.773922 540.752464,538.315186 C601.077349,572.523897 694.295829,583.071338 748.115473,584.994049 C777.755832,586.052954 854.227353,579.096143 899.926449,568.546915 C960.657203,554.527763 996.841755,533.181633 1086.74217,506.303554 C1108.63066,499.759417 1143.79975,492.77831 1192.24943,485.360233 C1122.98307,461.597564 1069.77261,444.557087 1032.61805,434.238801 C1012.01114,428.516006 991.469676,424.000346 959.470618,418.00201 C942.340128,414.79084 910.364297,406.814966 863.543124,394.074388 C895.938114,396.415136 932.371131,391.947891 972.842174,380.672655 C1026.43174,365.742596 1162.66835,315.741715 1209.36159,307.210809 C1251.33757,299.541751 1292.69677,283.876474 1322.01965,281.324078 C1348.84988,278.988653 1375.27447,283.8229 1401.2934,295.826819 C1386.24488,282.890898 1373.86844,275.225757 1364.16409,272.831394 C1322.24326,262.488234 1296.13997,247.0417 1278.78693,238.952592 C1250.78794,225.900874 1229.67362,210.052684 1209.36159,203.927497 C1194.07736,199.318469 1149.74406,191.640084 1135.18314,187.914913 C1123.14354,184.834779 1108.6989,190.39078 1097.15381,187.914913 C1059.36968,179.812037 1024.23381,174.945259 991.746212,173.31458 C884.233613,167.918105 799.922532,185.525336 738.812968,226.136274 C721.346129,226.228416 709.668596,226.228416 703.78037,226.136274 C684.402394,225.833038 675.142287,225.325097 664.163773,226.136274 C650.050337,227.179084 636.608576,236.713445 623.168138,238.952592 C606.884109,241.665474 591.021055,237.169468 579.363355,238.952592 C541.739384,244.707432 515.668689,252.552646 501.151271,262.488234 C518.834156,234.381753 535.60264,204.657202 551.456723,173.31458 C567.310806,141.971959 586.231261,101.141507 608.218087,50.8232231 C590.160019,75.0765909 571.239564,93.4400295 551.456723,105.913539 C512.289924,130.609053 438.862953,156.136707 405.2325,181.409294 C376.339176,203.122026 348.122946,216.983591 323.541933,238.952592 C306.403934,254.269484 283.54817,280.044733 254.974642,316.278337 C266.512678,254.914491 274.540211,209.958143 279.057242,181.409294 C284.135592,149.312759 281.488289,120.492848 288.395869,93.2871762 C296.922055,59.7065857 292.030787,52.6729383 300.526708,36.2416813 C305.573732,26.4806507 313.245474,14.4000903 323.541933,2.03561873e-13 C312.81892,4.52650906 301.103566,14.5681351 288.395869,30.1248781 C249.583074,77.6394435 216.600886,136.814062 187.606993,181.409294 C150.107191,239.087384 120.656368,279.044423 108.221259,307.210809 C81.4498103,367.850002 85.8156161,421.585656 121.318676,468.41777 L127.799695,481.468101 C113.317961,502.898887 102.368189,517.198485 94.9503792,524.366896 C89.1374022,529.98443 92.5798851,541.574687 86.6703195,545.256012 C80.3981519,549.163218 60.1593593,549.621727 51.6141663,552.696014 C41.669569,556.273763 24.464847,559.068452 0,561.080083 Z" id="Path-74" stroke-width="4.47637292" fill="#E4F461"></path>
            <path d="M86.6703195,548.668257 C104.635417,498.215585 134.463102,467.738053 176.153375,457.235662 C194.70512,452.562205 218.67112,433.311642 250.953064,434.273623 C277.795342,435.073505 329.221821,446.454888 405.2325,468.41777" id="Path-75" stroke-width="4.47637292"></path>
            <path d="M254.974642,316.278337 C237.545573,333.628277 222.933665,351.9542 211.138918,371.256106 C201.707125,386.691077 191.061517,415.720161 178.026818,444.195521 C175.849756,448.951489 172.275215,454.136712 167.303194,459.75119" id="Path-76" stroke-width="4.47637292"></path>
            <path d="M261.843513,434.238801 C275.852189,423.708494 290.855452,409.969535 306.853301,393.021923 C319.223859,379.916947 328.746459,364.158085 346.915254,344.756273 C363.02433,327.553962 396.377493,291.142276 415.353898,270.310501 C444.649901,238.150155 495.82003,183.507389 568.864282,106.382202" id="Path-77" stroke-width="4.47637292"></path>
            <path d="M127.799695,481.468101 C130.210319,463.192249 145.395479,416.772247 173.355177,342.208096 C201.314875,267.643944 235.070499,183.546511 274.62205,89.9157942" id="Path-78" stroke-width="4.47637292"></path>
            <path d="M86.6703195,548.668257 C138.043491,540.305462 174.407599,535.294633 195.762642,533.635769 C297.954249,525.697503 369.230167,533.481232 420.598909,548.668257 C445.076813,555.90508 473.497009,562.752093 496.676922,578.267917 C512.827648,589.078649 539.449529,603.683757 562.709105,631.03972 C569.337154,638.835075 585.913622,654.881527 596.184419,671.77373 C600.238841,678.44197 604.250064,688.804857 608.218087,702.862392" id="Path-79" stroke-width="4.47637292"></path>
            <path d="M369.197832,459.75119 C388.149984,432.002737 401.794124,412.770089 410.130251,402.053245 C429.593458,377.031538 446.373113,360.866628 459.655099,341.010808 C477.665817,314.0858 488.503112,290.890659 495.630928,272.742426 C496.634643,270.18685 498.474765,266.768787 501.151291,262.488234" id="Path-80" stroke-width="4.47637292"></path>
            <path d="M400.756049,414.430605 C438.469942,390.930308 467.220563,374.04357 487.007913,363.770394 C516.688937,348.360629 542.110918,333.01371 584.083076,321.402633 C640.742918,305.728391 712.338209,277.318283 794.282445,252.886861 C830.782841,242.00438 857.779166,223.972344 894.912532,209.996957 C901.482673,207.524241 911.663325,205.793362 925.454488,204.804321" id="Path-81" stroke-width="4.47637292"></path>
            <path d="M474.571579,459.75119 C492.684487,457.878662 507.465234,453.922146 518.913818,447.881643 C559.679466,426.372868 611.41456,400.903526 635.814308,388.014763 C664.54536,372.838061 670.666881,361.818975 703.78037,343.09531 C780.254263,299.853973 851.130742,262.488234 892.361131,221.305263 C898.253806,215.419364 909.284925,209.91905 925.454488,204.804321" id="Path-82" stroke-width="4.47637292"></path>
            <path d="M738.812968,226.136274 C756.916811,226.265905 771.229581,226.265905 781.751278,226.136274 C795.84214,225.96267 819.531135,229.201944 829.866854,226.136274 C851.779151,219.636884 882.130446,212.526233 920.92074,204.804321" id="Path-83" stroke-width="4.47637292"></path>
            <path d="M663.105268,370.56547 C683.055778,369.539565 695.358366,369.539565 700.013034,370.56547 C742.048685,379.830279 762.370623,390.912676 780.304162,394.074388 C801.216409,397.761251 828.96273,397.761251 863.543124,394.074388" id="Path-84" stroke-width="4.47637292"></path>
            <path d="M1386.25195,285.691948 C1374.44812,280.370249 1363.55324,276.833612 1353.56732,275.082037 C1314.75476,268.27414 1269.69587,270.310501 1251.97813,262.488234 C1239.26433,256.875171 1204.45858,257.266703 1186.00606,254.043111 C1154.56559,248.55057 1102.56434,247.560358 1063.90949,254.043111 C1042.43909,257.643884 1014.73675,268.603711 998.681326,270.310501 C963.450258,274.055781 929.966696,285.83265 887.551106,295.396338 C858.043147,302.049669 823.130876,304.153869 784.82097,316.278337 C762.122212,323.462128 726.088066,338.409253 676.718531,361.119712" id="Path-85" stroke-width="4.47637292"></path>
            <path d="M533.133351,440.044384 C586.191302,467.660195 658.583283,481.468101 750.309294,481.468101 C824.985318,481.468101 925.454488,481.468101 1058.80046,473.578002 C1073.80203,472.690357 1105.79367,475.32039 1154.77538,481.468101" id="Path-86" stroke-width="3.58109834"></path>
        </g>
    </g>
</svg>