<?xml version="1.0" encoding="UTF-8"?>
<svg width="1739px" height="1305px" viewBox="0 0 1739 1305" version="1.1" xmlns="http://www.w3.org/2000/svg" xmlns:xlink="http://www.w3.org/1999/xlink">
    <title>Artboard</title>
    <g id="Artboard" stroke="none" stroke-width="1" fill="none" fill-rule="evenodd">
        <rect fill="#CEF6B5" x="0" y="0" width="1739" height="1305"></rect>
        <g id="hops-copy" transform="translate(211.460938, 179.257573)" stroke="#4D3370" stroke-width="5">
            <path d="M462.492188,586.256099 C467.640774,605.584834 483.554694,615.249202 510.233948,615.249202 C536.913201,615.249202 574.657484,605.584834 623.466797,586.256099 C630.930791,587.13187 638.121546,587.13187 645.039063,586.256099 C651.956579,585.380328 660.666214,583.367307 671.167969,580.217037 L654.597656,609.896724 C701.601563,590.110266 724.101563,580.217037 722.097656,580.217037 C720.890975,580.217037 694.574905,597.381069 676.904297,640.970271 C671.209168,655.018805 671.740468,680.96291 664.054688,717.131648 C662.176223,725.97157 656.817499,740.439486 647.978516,760.535396 L671.167969,738.070552 C670.481613,759.366656 670.481613,773.495562 671.167969,780.457271 C671.854325,787.41898 673.766434,792.684605 676.904297,796.254146 C690.377007,793.689269 697.332533,793.689269 697.770874,796.254146 C700.700948,813.398973 685.678923,834.808345 690.828125,834.808345 C697.132813,834.808345 703.090454,839.922318 708.70105,850.150264 C696.785767,868.532019 690.828125,877.722896 690.828125,877.722896 C690.828125,877.722896 701.251302,877.722896 722.097656,877.722896 C768.268369,909.719746 800.523171,927.565449 818.862061,931.260005 C870.454347,941.653796 904.011719,914.371333 904.011719,914.371333 C904.011719,914.371333 900.425781,931.260005 904.011719,931.260005 C905.653502,931.260005 912.652672,939.922437 937.693359,937.946224 C945.30764,937.345304 961.277041,933.021512 985.601563,924.974849 C1001.24265,927.218129 1013.35609,927.218129 1021.94189,924.974849 C1030.5277,922.731569 1042.89082,916.336387 1059.03125,905.789302 C1070.94496,912.615399 1082.74778,912.615399 1094.4397,905.789302 C1102.36322,901.163308 1104.67309,881.63222 1115.38037,869.051509 C1118.77526,865.062621 1126.51761,861.822224 1138.60742,859.330318 C1165.21639,847.432861 1183.18917,836.940612 1192.52576,827.853572 C1201.86235,818.766532 1210.90259,802.967765 1219.64648,780.457271 C1234.90639,766.553652 1245.6935,754.448061 1252.00781,744.140498 C1258.32213,733.832935 1262.66392,721.241912 1265.0332,706.367427 C1284.73242,697.025956 1297.38542,684.650956 1302.99219,669.242427 C1308.59896,653.833898 1309.82161,630.197831 1306.66016,598.334224 C1313.40935,584.992293 1317.08294,574.375533 1317.68091,566.483943 C1318.27888,558.592354 1316.18602,548.347786 1311.40234,535.75024 C1312.3645,521.808589 1312.3645,512.4413 1311.40234,507.648372 C1310.44018,502.855444 1307.6368,498.257889 1302.99219,493.855708 C1305.58238,474.864173 1305.58238,462.26994 1302.99219,456.073009 C1293.69026,433.818492 1274.94922,426.763912 1274.94922,426.763912 C1274.94922,426.763912 1265.0332,419.2981 1265.0332,403.45222 C1265.0332,396.116357 1268.33854,381.139525 1274.94922,358.521724 C1265.7599,362.899301 1259.82105,366.734272 1257.13269,370.026637 C1254.44433,373.319002 1252.73603,378.849265 1252.00781,386.617427 C1241.52253,371.36503 1227.93574,360.78365 1211.24744,354.873287 C1205.5049,352.839498 1203.95155,341.025534 1192.52576,336.535686 C1184.61551,333.427296 1166.84539,337.082373 1160.78186,336.535686 C1153.69478,335.896716 1146.3033,339.20326 1138.60742,346.455318 C1081.73037,329.33699 1040.91682,321.282954 1016.16675,322.293208 C1003.49327,322.810518 985.574907,325.910473 971.233887,331.593074 C965.878858,333.714994 957.899236,326.603436 948.873413,331.593074 C944.653665,333.925828 939.154845,341.685899 932.376953,354.873287 L913.460938,354.873287 C917.18674,338.994551 919.038302,328.134525 919.015625,322.293208 C918.978298,312.678372 912.656652,306.710726 913.460938,300.645549 C914.998167,289.053192 918.683714,279.336135 924.517578,271.49438 L924.517578,242.830318 C913.443359,213.593437 909.757813,187.059054 913.460938,163.227168 C914.572262,156.075112 914.202818,153.570112 913.460938,148.736186 C911.730745,137.462638 913.058941,127.823432 904.011719,130.402019 C894.964496,132.980605 881.724609,157.78149 881.724609,157.78149 C881.724609,157.78149 884.340526,149.639397 874.844604,141.647517 C869.76876,137.375627 856.648032,129.780961 835.482422,118.863521 C831.022456,124.058215 827.395299,125.914437 824.600952,124.432185 C821.806605,122.949934 817.399425,116.831928 811.379413,106.078168 C779.296759,86.0669059 752.835164,69.4595495 731.994629,56.256099 C711.154093,43.0526485 692.790649,35.8827266 676.904297,34.7463334 C658.674773,21.3094041 644.859221,13.0196905 635.457642,9.87719275 C626.056062,6.73469496 615.070833,6.73469496 602.501953,9.87719275 C583.549103,2.13977412 558.84669,-1.05174403 528.394714,0.302638307 C514.122419,0.937413061 497.786939,7.00235954 475.526733,9.87719275 C467.421162,10.9240009 455.702428,18.1099384 441.009766,19.662349 C430.474769,20.7754652 410.96891,20.7754652 382.492188,19.662349 L427.901367,34.7463334 C423.625889,38.9848214 420.980382,42.4802336 419.964844,45.2325699 C418.949306,47.9849063 418.949306,51.659416 419.964844,56.256099 C397.758554,54.6720269 368.222177,59.269556 331.355713,70.0486863 C316.442532,74.4090481 305.995697,64.7559006 286.386719,80.365886 C273.314067,90.7725429 252.330902,101.587433 223.437225,112.810558 C193.048981,119.779948 170.051676,134.770259 154.445313,157.78149 C147.910874,167.416371 136.784009,173.014355 128.854004,179.024226 C121.514387,184.586664 110.458234,190.178278 95.6855469,195.799068 C132.271653,185.488041 151.858242,182.909916 154.445313,188.064693 C156.166137,191.493462 152.265625,217.635005 140.933594,220.53149 C133.378906,222.462479 125.428385,228.429276 117.082031,238.43188 C93.4867512,259.366249 76.3799804,276.597369 65.7617188,290.12524 C55.1434571,303.65311 50.3088217,314.375767 51.2578125,322.293208 C40.2464362,332.756105 32.6272956,341.774334 28.4003906,349.347896 C24.1734857,356.921458 21.8479648,365.721588 21.4238281,375.748287 C17.0891454,381.105087 13.6978693,384.728133 11.25,386.617427 C8.80213065,388.506721 5.05213065,390.395393 -1.13686838e-13,392.283443 L5.98242187,416.715083 C32.9051104,446.951366 52.8315427,466.26061 65.7617188,474.642818 C81.0887102,484.578802 97.7695313,492.969427 103.59375,493.855708 C135.491155,498.709593 133.726181,507.555296 98.2988281,520.392818 C118.637124,521.564023 132.848712,524.10569 140.933594,528.017818 C161.063763,537.758442 163.759766,535.013912 178.152344,547.586177 C193.178074,560.711516 220.63185,565.284433 260.513672,561.304927 C272.480764,558.790212 279.364878,558.790212 281.166016,561.304927 C285.253056,567.01118 276.740204,584.674962 281.166016,586.256099 C301.529031,593.530859 334.288113,587.180067 354.099609,586.256099 C384.63963,584.831775 413.609682,573.708728 441.009766,552.886958 C449.401686,556.633188 456.562493,559.439178 462.492188,561.304927 C468.421882,563.170676 478.807298,564.897015 493.648438,566.483943 C497.441506,573.593241 497.441506,578.170939 493.648438,580.217037 C489.855369,582.263134 479.469953,584.276155 462.492188,586.256099 Z" id="Path-15" fill="#E4F461"></path>
            <path d="M919.015625,218.33813 C941.069377,215.750891 956.868856,214.457271 966.414062,214.457271 C1002.36071,214.457271 1024.44336,218.33813 1024.44336,218.33813 C1024.44336,218.33813 1038.40402,206.262798 1062.0957,201.586177 C1071.31595,199.766146 1081.42383,210.959224 1098.60156,204.40063 C1103.38774,202.573231 1113.81092,201.63508 1129.87109,201.586177 C1118.45219,209.317488 1111.77901,214.901472 1109.85156,218.33813 C1107.92412,221.774788 1107.92412,225.400439 1109.85156,229.215083 C1118.00132,233.97698 1123.07489,238.140392 1125.07227,241.705318 C1127.06964,245.270244 1127.06964,250.162171 1125.07227,256.381099 C1117.03407,256.381099 1110.79384,256.381099 1106.35156,256.381099 C1101.90929,256.381099 1097.57986,256.381099 1093.36328,256.381099 C1090.80859,257.813825 1089.53125,259.83596 1089.53125,262.447505 C1089.53125,265.05905 1090.80859,269.340951 1093.36328,275.293208 C1082.79238,272.737539 1075.18236,270.979076 1070.5332,270.017818 C1054.9319,266.792096 1043.33391,263.696898 1038.18945,256.381099 C1030.74544,245.795162 1025.36361,239.896398 1022.04395,238.68481 C1004.33843,235.086503 989.149957,233.287349 976.478516,233.287349 C963.807075,233.287349 946.812934,235.086503 925.496094,238.68481" id="Path-16"></path>
            <path d="M985.601563,924.974849 C966.537354,910.103389 962.853394,894.917089 974.549683,879.41595 C980.439116,871.61066 983.804544,856.034699 992.196411,836.64532 C996.0732,827.688013 1006.74156,816.723731 1015.78778,796.560176 C1018.33798,790.875917 1021.22317,780.148907 1024.44336,764.379146 C1050.83002,760.761079 1068.4584,757.668998 1077.32849,755.102901 C1116.48203,743.775873 1139.13489,705.749751 1139.13489,705.749751 C1139.13489,705.749751 1110.93764,761.716385 1098.77808,812.75085 C1096.30036,823.149978 1096.30036,840.359207 1098.77808,864.378536" id="Path-17"></path>
            <path d="M932.376953,354.873287 C918.812807,363.250547 910.152672,370.285866 906.396545,375.979244 C902.640419,381.672621 900.661883,390.762953 900.460938,403.25024 C874.627825,408.460983 856.773455,413.449081 846.897827,418.214534 C814.251711,433.967814 796.158061,454.538592 791.916504,461.593471 C782.667206,476.977604 785.578593,518.424983 831.21521,518.424983 C861.639621,518.424983 909.941583,512.245642 976.121094,499.886958 C867.781128,510.888383 819.479167,540.842037 831.21521,589.74792 C837.46259,615.781707 862.206261,639.501885 889.752747,619.970271 C918.556443,599.547242 970.933825,557.20428 1003.72198,546.216182 C1019.45431,540.943903 1027.54643,550.929473 1032.26172,558.863521 C1044.74429,579.866977 1035.45896,605.224438 1017.15234,630.738521 C1006.01862,646.255683 992.096478,656.9435 976.121094,680.859615 C970.02821,689.98103 964.146699,704.921134 958.476563,725.679927" id="Path-18"></path>
            <path d="M708.70105,850.150264 C725.28487,854.96065 737.479776,859.554501 745.285767,863.931819 C771.436426,878.596165 793.455558,896.968921 806.188965,900.553462 C824.623768,905.742986 839.509653,902.280238 850.846619,890.165218 C868.013915,900.277875 883.643126,905.959597 897.734253,907.210384 C911.82538,908.46117 935.20684,906.242196 967.878634,900.553462" id="Path-19"></path>
            <path d="M1235.13989,469.119689 C1246.66056,485.16351 1252.4209,501.423295 1252.4209,517.899043 C1252.4209,544.019996 1227.34057,575.742889 1216.76746,588.368869 C1198.42851,610.268486 1204.55265,626.349671 1235.13989,636.612422 C1205.43758,671.231197 1196.22465,692.350195 1207.5011,699.969417 C1214.29056,704.556889 1224.21625,707.080767 1237.27818,707.54105 C1243.03305,707.743843 1253.03513,707.146743 1267.28442,705.749751" id="Path-20"></path>
            <path d="M1193.52051,362.181087 C1123.67033,351.94368 1083.33557,351.94368 1072.51624,362.181087 C1063.41814,370.789836 1079.74512,398.719984 1112.98669,420.203182 C1119.27555,424.267509 1129.14331,434.098872 1151.83997,420.203182 C1166.97107,410.939388 1180.86458,406.307491 1193.52051,406.307491" id="Path-21"></path>
            <path d="M900.460938,403.25024 C898.674197,446.191239 921.146763,460.94895 967.878634,447.523372 C994.981459,439.737014 1024.42904,438.760534 1053.50676,437.83279 C1067.54633,437.384848 1088.67119,437.384848 1116.88135,437.83279 C1126.27668,452.970483 1135.77713,465.255914 1145.38269,474.689082 C1154.98825,484.122251 1167.7319,493.681699 1183.61365,503.367427 C1184.23369,514.503134 1181.93466,526.806194 1176.71655,540.276607 C1171.49844,553.74702 1162.82413,569.771367 1150.6936,588.349649 C1170.52161,572.808757 1184.79725,562.475856 1193.52051,557.350948 C1202.24377,552.226039 1211.59554,548.677862 1221.57581,546.706416" id="Path-22"></path>
            <path d="M850.846619,890.165488 C810.555345,871.727605 798.315497,846.793209 814.127075,815.3623 C823.17218,797.382066 838.289842,825.220943 890.448853,781.75439 C903.567307,770.822166 925.835292,736.465029 957.252808,678.682979 C949.383023,674.819545 943.668586,671.672695 940.109497,669.242427 C927.476911,660.616466 915.410944,653.441852 900.36224,657.512813 C878.953831,663.304195 858.263032,682.794531 838.289842,715.983821 L857.733765,648.82574" id="Path-23"></path>
            <path d="M812.856201,554.422054 C790.228446,549.775542 771.915387,547.805693 757.917023,548.512508 C743.918659,549.219322 724.412362,551.189171 699.398132,554.422054 C721.605611,539.094132 737.296163,521.916133 746.469788,502.888057 C755.643412,483.859981 769.379541,475.593705 787.678173,478.089229" id="Path-24"></path>
            <path d="M699.398132,554.422054 C693.638258,563.852939 688.93323,570.236036 685.283051,573.571346 C681.632871,576.906655 676.927844,579.121885 671.167969,580.217037" id="Path-25"></path>
            <path d="M912.827307,201.383169 C909.686166,216.449848 907.701209,228.768188 906.872437,238.338189 C905.629278,252.693189 910.694504,267.439815 906.872437,270.145259 C903.050369,272.850703 868.945149,283.860113 862.09122,299.046321 C851.766424,321.922908 843.871873,336.941451 831.846313,347.815547 C823.243583,355.594554 796.336914,376.01385 796.336914,403.25024 C796.336914,421.407832 801.843343,433.256791 812.856201,438.797115" id="Path-26"></path>
            <path d="M671.167969,580.217037 C656.184555,570.224754 650.149358,556.911278 653.062378,540.276607 C654.823952,530.21722 662.379855,521.015924 671.167969,505.775203 C674.997516,499.133839 681.482542,486.915334 690.623047,469.119689 C669.467873,486.906526 651.226474,493.808645 635.89885,489.826045 C620.667102,485.868357 600.514552,489.653793 589.694946,484.660152 C565.547695,473.515317 560.146358,451.600662 563.076416,435.872401 C566.893455,415.382914 602.265513,391.344146 645.039062,354.873287 C655.684991,345.796037 679.685425,329.899895 690.623047,301.33752 C693.313958,294.310506 699.513726,291.040588 709.222351,291.527766" id="Path-27"></path>
            <path d="M831.846313,347.815547 C802.007894,309.804464 790.171427,281.165344 796.336914,261.898189 C800.337972,249.394876 814.600242,235.270826 838.550493,213.555232 C845.8,206.982135 855.168808,189.117738 863.854004,183.772365 C868.41192,180.967159 874.576513,183.042497 882.347785,189.998378" id="Path-28"></path>
            <path d="M827.528198,223.276729 C828.250933,211.475567 823.360268,204.177714 812.856201,201.383169 C805.416195,199.403799 788.43005,194.633224 768.913208,195.45782 C763.55472,195.684219 755.662061,197.659335 745.235229,201.383169 C760.334181,185.452148 770.246494,174.999065 774.972168,170.023921 C782.734349,161.851973 788.384105,160.657533 787.678173,155.140407 C787.007556,149.899287 770.857611,147.472759 761.880493,139.434444 C758.308765,136.236237 751.251986,130.706841 745.235229,123.656856 C742.431478,120.371629 738.382731,114.637936 733.088989,106.455776 C713.216303,102.894342 699.92842,101.160893 693.225342,101.255428 C682.097305,101.412369 675.270378,101.030206 670.049362,97.933162 C660.110953,92.0378174 658.312151,81.3890442 664.652954,65.9868424 C650.962624,61.7577582 641.340781,57.5668504 635.787424,53.414119 C624.896681,45.2701565 616.980482,29.5174724 608.475891,25.3310502 C593.466367,17.9425466 567.508624,9.49886316 530.602661,8.52651283e-14" id="Path-29"></path>
            <path d="M661.066551,86.2649491 C634.598287,87.1126579 617.563611,89.9936393 609.962524,94.9078934 C581.177898,113.517728 580.545144,146.33449 602.501953,166.103694 C624.086299,185.537545 653.205819,171.120534 699.398132,166.103694 C712.337915,164.698334 735.509607,167.64027 768.913208,174.9295" id="Path-30"></path>
            <path d="M441.009766,552.886958 C382.398478,521.645625 359.529541,490.650874 372.402954,459.902705 C381.238438,438.799138 422.305054,427.385005 463.601807,417.188747 C476.10663,414.101278 491.887962,405.353036 510.945801,390.944019" id="Path-31"></path>
            <path d="M382.168518,447.206599 C322.357937,417.609754 301.988552,393.529264 321.060364,374.965129 C334.739185,361.650427 368.925467,361.650427 448.173401,354.873287 C466.891133,353.27258 494.367553,336.584083 530.602661,304.807796 C528.728349,294.983956 526.902828,288.355121 525.126099,284.921291 C515.955921,267.19837 507.031114,256.900072 505.26532,247.187648 C501.84685,228.384984 497.296753,203.610753 519.441833,193.086925 C541.586914,182.563097 563.389699,191.808411 592.747314,201.383169 C612.319058,207.76634 629.749641,223.0345 645.039062,247.187648" id="Path-32"></path>
            <path d="M587.082824,131.116203 C549.429382,114.745051 513.598905,102.268367 479.591394,93.6861512 C445.583882,85.1039359 425.708366,72.6272518 419.964844,56.256099" id="Path-33"></path>
            <path d="M182.492188,265.189322 C176.413248,282.763501 172.113626,295.969659 169.593323,304.807796 C162.333773,330.265399 158.355992,354.169235 169.593323,361.316219 C179.402296,367.554761 214.217777,356.841275 246.571167,354.503032 C262.579731,353.346062 288.223977,353.46948 323.503906,354.873287 C353.62849,358.873543 371.982453,353.504707 378.565796,338.76678 C393.228882,305.940982 365.340299,305.940982 356.547424,281.448909 C354.139273,274.741135 354.139273,265.101975 356.547424,252.531429 C361.614408,241.902588 365.740422,235.467 368.925467,233.224666 C388.308636,219.578531 412.811515,224.3548 439.935634,233.224666 C473.745309,244.280778 503.967651,268.141821 530.602661,304.807796" id="Path-34"></path>
            <path d="M154.443831,157.78149 C154.547521,208.714805 175.175008,235.567038 216.326294,238.338189 C239.834569,239.921249 275.500661,249.669149 302.65686,252.531429 C316.244051,253.963527 334.207573,253.963527 356.547424,252.531429" id="Path-35"></path>
            <path d="M132.556512,403.25024 C155.150085,409.011853 170.955666,413.935438 179.973252,418.020993 C206.07657,429.847499 224.731445,445.518736 244.551968,459.715889 C274.643213,481.269811 311.975032,484.404411 356.547424,469.119689" id="Path-36"></path>
            <path d="M327.032641,71.1436542 C316.799194,75.3451904 310.254172,78.2967314 307.397575,79.9982774 C285.2793,93.1731374 278.527207,110.212446 287.141297,131.116203 C297.424165,156.069572 332.849644,168.851786 393.417735,169.462847" id="Path-37"></path>
        </g>
    </g>
</svg>